<?xml version="1.0" encoding="UTF-8" standalone="yes"?>
<svg xmlns="http://www.w3.org/2000/svg" xmlns:xlink="http://www.w3.org/1999/xlink" height="971pt" style="width:1214px;height:971px;" version="1.1" viewBox="0 0 1214 971" width="1214pt"><defs><filter height="300%" id="f1" width="300%" x="-1" y="-1"><feGaussianBlur result="blurOut" stdDeviation="2.0"/><feColorMatrix in="blurOut" result="blurOut2" type="matrix" values="0 0 0 0 0 0 0 0 0 0 0 0 0 0 0 0 0 0 .4 0"/><feOffset dx="4.0" dy="4.0" in="blurOut2" result="blurOut3"/><feBlend in="SourceGraphic" in2="blurOut3" mode="normal"/></filter></defs><g><text fill="#000000" font-family="sans-serif" font-size="18" lengthAdjust="spacingAndGlyphs" textLength="207" x="517.5" y="16.708">Classes - Class Diagram</text><polygon fill="#FFFFFF" filter="url(#f1)" points="374.769,44.9531,459.769,44.9531,466.769,67.25,650.769,67.25,650.769,406.9531,374.769,406.9531,374.769,44.9531" style="stroke: #000000; stroke-width: 2.0;"/><line style="stroke: #000000; stroke-width: 2.0;" x1="374.769" x2="466.769" y1="67.25" y2="67.25"/><text fill="#000000" font-family="sans-serif" font-size="14" font-weight="bold" lengthAdjust="spacingAndGlyphs" textLength="79" x="377.769" y="60.9482">Controller</text><polygon fill="#FFFFFF" filter="url(#f1)" points="38.7694,430.9531,91.7694,430.9531,98.7694,453.25,1043.77,453.25,1043.77,964.9531,38.7694,964.9531,38.7694,430.9531" style="stroke: #000000; stroke-width: 2.0;"/><line style="stroke: #000000; stroke-width: 2.0;" x1="38.7694" x2="98.7694" y1="453.25" y2="453.25"/><text fill="#000000" font-family="sans-serif" font-size="14" font-weight="bold" lengthAdjust="spacingAndGlyphs" textLength="47" x="41.7694" y="446.9482">Model</text><polygon fill="#FFFFFF" filter="url(#f1)" points="1067.77,455.9531,1147.77,455.9531,1154.77,478.25,1207.77,478.25,1207.77,569.9531,1067.77,569.9531,1067.77,455.9531" style="stroke: #000000; stroke-width: 2.0;"/><line style="stroke: #000000; stroke-width: 2.0;" x1="1067.77" x2="1154.77" y1="478.25" y2="478.25"/><text fill="#000000" font-family="sans-serif" font-size="14" font-weight="bold" lengthAdjust="spacingAndGlyphs" textLength="74" x="1070.77" y="471.9482">Observer</text><rect fill="#FEFECE" filter="url(#f1)" height="86.4141" style="stroke: #A80036; stroke-width: 1.5;" width="172" x="444.769" y="80.9531"/><ellipse cx="493.019" cy="96.9531" fill="#ADD1B2" rx="11" ry="11" style="stroke: #A80036; stroke-width: 1.0;"/><path d="M495.3628,92.625 L495.5346,92.7031 C495.7534,92.3906 495.9565,92.2969 496.2534,92.2969 C496.5503,92.2969 496.8315,92.4375 496.9878,92.7031 C497.0815,92.8594 497.0971,92.9844 497.0971,93.4219 L497.0971,94.8438 C497.0971,95.2656 497.0659,95.4531 496.9565,95.6094 C496.7846,95.8281 496.519,95.9688 496.2534,95.9688 C496.0346,95.9688 495.8003,95.8594 495.6596,95.7188 C495.519,95.5938 495.4878,95.4688 495.4253,95.0625 C495.3315,94.6563 495.1596,94.4375 494.6753,94.1563 C494.2065,93.9063 493.5971,93.75 493.019,93.75 C491.2846,93.75 490.0346,95.0625 490.0346,96.8438 L490.0346,97.9375 C490.0346,99.6406 491.3315,100.7344 493.3784,100.7344 C494.144,100.7344 494.8315,100.6094 495.2534,100.3438 C495.4409,100.25 495.4409,100.25 495.894,99.7656 C496.0815,99.5781 496.2846,99.5 496.5034,99.5 C496.9721,99.5 497.3628,99.8906 497.3628,100.3438 C497.3628,100.7344 497.0346,101.1875 496.4565,101.5938 C495.7065,102.1406 494.5503,102.4375 493.3315,102.4375 C490.4409,102.4375 488.3315,100.5469 488.3315,97.9688 L488.3315,96.8438 C488.3315,94.125 490.3315,92.0469 492.9565,92.0469 C493.8315,92.0469 494.4253,92.1875 495.3628,92.625 Z "/><text fill="#000000" font-family="sans-serif" font-size="12" lengthAdjust="spacingAndGlyphs" textLength="67" x="513.519" y="101.1074">Simulateur</text><line style="stroke: #A80036; stroke-width: 1.5;" x1="445.769" x2="615.769" y1="112.9531" y2="112.9531"/><ellipse cx="455.769" cy="124.8555" fill="none" rx="3" ry="3" style="stroke: #038048; stroke-width: 1.0;"/><text fill="#000000" font-family="sans-serif" font-size="11" lengthAdjust="spacingAndGlyphs" textLength="146" x="464.769" y="127.1636">ArchiveSimulation archive</text><line style="stroke: #A80036; stroke-width: 1.5;" x1="445.769" x2="615.769" y1="133.7578" y2="133.7578"/><text fill="#000000" font-family="sans-serif" font-size="11" lengthAdjust="spacingAndGlyphs" textLength="124" x="450.769" y="147.9683">void jouerSimulation()</text><text fill="#000000" font-family="sans-serif" font-size="11" lengthAdjust="spacingAndGlyphs" textLength="136" x="450.769" y="160.7729">void rejouerSimulation()</text><rect fill="#FEFECE" filter="url(#f1)" height="163.2422" style="stroke: #A80036; stroke-width: 1.5;" width="244" x="390.769" y="227.4531"/><ellipse cx="476.019" cy="243.4531" fill="#ADD1B2" rx="11" ry="11" style="stroke: #A80036; stroke-width: 1.0;"/><path d="M478.3628,239.125 L478.5346,239.2031 C478.7534,238.8906 478.9565,238.7969 479.2534,238.7969 C479.5503,238.7969 479.8315,238.9375 479.9878,239.2031 C480.0815,239.3594 480.0971,239.4844 480.0971,239.9219 L480.0971,241.3438 C480.0971,241.7656 480.0659,241.9531 479.9565,242.1094 C479.7846,242.3281 479.519,242.4688 479.2534,242.4688 C479.0346,242.4688 478.8003,242.3594 478.6596,242.2188 C478.519,242.0938 478.4878,241.9688 478.4253,241.5625 C478.3315,241.1563 478.1596,240.9375 477.6753,240.6563 C477.2065,240.4063 476.5971,240.25 476.019,240.25 C474.2846,240.25 473.0346,241.5625 473.0346,243.3438 L473.0346,244.4375 C473.0346,246.1406 474.3315,247.2344 476.3784,247.2344 C477.144,247.2344 477.8315,247.1094 478.2534,246.8438 C478.4409,246.75 478.4409,246.75 478.894,246.2656 C479.0815,246.0781 479.2846,246 479.5034,246 C479.9721,246 480.3628,246.3906 480.3628,246.8438 C480.3628,247.2344 480.0346,247.6875 479.4565,248.0938 C478.7065,248.6406 477.5503,248.9375 476.3315,248.9375 C473.4409,248.9375 471.3315,247.0469 471.3315,244.4688 L471.3315,243.3438 C471.3315,240.625 473.3315,238.5469 475.9565,238.5469 C476.8315,238.5469 477.4253,238.6875 478.3628,239.125 Z "/><text fill="#000000" font-family="sans-serif" font-size="12" lengthAdjust="spacingAndGlyphs" textLength="65" x="496.519" y="247.6074">Simulation</text><line style="stroke: #A80036; stroke-width: 1.5;" x1="391.769" x2="633.769" y1="259.4531" y2="259.4531"/><rect fill="none" height="6" style="stroke: #C82930; stroke-width: 1.0;" width="6" x="398.769" y="268.3555"/><text fill="#000000" font-family="sans-serif" font-size="11" lengthAdjust="spacingAndGlyphs" textLength="104" x="410.769" y="273.6636">Manager manager</text><rect fill="none" height="6" style="stroke: #C82930; stroke-width: 1.0;" width="6" x="398.769" y="281.1602"/><text fill="#000000" font-family="sans-serif" font-size="11" lengthAdjust="spacingAndGlyphs" textLength="146" x="410.769" y="286.4683">ArchiveSimulation archive</text><rect fill="none" height="6" style="stroke: #C82930; stroke-width: 1.0;" width="6" x="398.769" y="293.9648"/><text fill="#000000" font-family="sans-serif" font-size="11" lengthAdjust="spacingAndGlyphs" textLength="120" x="410.769" y="299.2729">CarteDeTerrain carte</text><rect fill="none" height="6" style="stroke: #C82930; stroke-width: 1.0;" width="6" x="398.769" y="306.7695"/><text fill="#000000" font-family="sans-serif" font-size="11" lengthAdjust="spacingAndGlyphs" textLength="111" x="410.769" y="312.0776">List&lt;Robot&gt; robots</text><rect fill="none" height="6" style="stroke: #C82930; stroke-width: 1.0;" width="6" x="398.769" y="319.5742"/><text fill="#000000" font-family="sans-serif" font-size="11" lengthAdjust="spacingAndGlyphs" textLength="143" x="410.769" y="324.8823">List&lt;Incendie&gt; incendies</text><line style="stroke: #A80036; stroke-width: 1.5;" x1="391.769" x2="633.769" y1="331.4766" y2="331.4766"/><ellipse cx="401.769" cy="343.3789" fill="#84BE84" rx="3" ry="3" style="stroke: #038048; stroke-width: 1.0;"/><text fill="#000000" font-family="sans-serif" font-size="11" lengthAdjust="spacingAndGlyphs" textLength="102" x="410.769" y="345.687">void mettreAJour()</text><ellipse cx="401.769" cy="356.1836" fill="#84BE84" rx="3" ry="3" style="stroke: #038048; stroke-width: 1.0;"/><text fill="#000000" font-family="sans-serif" font-size="11" lengthAdjust="spacingAndGlyphs" textLength="107" x="410.769" y="358.4917">void archiverTour()</text><ellipse cx="401.769" cy="368.9883" fill="#84BE84" rx="3" ry="3" style="stroke: #038048; stroke-width: 1.0;"/><text fill="#000000" font-family="sans-serif" font-size="11" lengthAdjust="spacingAndGlyphs" textLength="108" x="410.769" y="371.2964">bool estTerminee()</text><ellipse cx="401.769" cy="381.793" fill="#84BE84" rx="3" ry="3" style="stroke: #038048; stroke-width: 1.0;"/><text fill="#000000" font-family="sans-serif" font-size="11" lengthAdjust="spacingAndGlyphs" textLength="218" x="410.769" y="384.1011">ArchiveSimulation getArchiveResultat()</text><rect fill="#FEFECE" filter="url(#f1)" height="86.4141" style="stroke: #A80036; stroke-width: 1.5;" width="235" x="792.519" y="479.9531"/><ellipse cx="850.769" cy="495.9531" fill="#ADD1B2" rx="11" ry="11" style="stroke: #A80036; stroke-width: 1.0;"/><path d="M853.1128,491.625 L853.2846,491.7031 C853.5034,491.3906 853.7065,491.2969 854.0034,491.2969 C854.3003,491.2969 854.5815,491.4375 854.7378,491.7031 C854.8315,491.8594 854.8471,491.9844 854.8471,492.4219 L854.8471,493.8438 C854.8471,494.2656 854.8159,494.4531 854.7065,494.6094 C854.5346,494.8281 854.269,494.9688 854.0034,494.9688 C853.7846,494.9688 853.5503,494.8594 853.4096,494.7188 C853.269,494.5938 853.2378,494.4688 853.1753,494.0625 C853.0815,493.6563 852.9096,493.4375 852.4253,493.1563 C851.9565,492.9063 851.3471,492.75 850.769,492.75 C849.0346,492.75 847.7846,494.0625 847.7846,495.8438 L847.7846,496.9375 C847.7846,498.6406 849.0815,499.7344 851.1284,499.7344 C851.894,499.7344 852.5815,499.6094 853.0034,499.3438 C853.1909,499.25 853.1909,499.25 853.644,498.7656 C853.8315,498.5781 854.0346,498.5 854.2534,498.5 C854.7221,498.5 855.1128,498.8906 855.1128,499.3438 C855.1128,499.7344 854.7846,500.1875 854.2065,500.5938 C853.4565,501.1406 852.3003,501.4375 851.0815,501.4375 C848.1909,501.4375 846.0815,499.5469 846.0815,496.9688 L846.0815,495.8438 C846.0815,493.125 848.0815,491.0469 850.7065,491.0469 C851.5815,491.0469 852.1753,491.1875 853.1128,491.625 Z "/><text fill="#000000" font-family="sans-serif" font-size="12" lengthAdjust="spacingAndGlyphs" textLength="110" x="871.269" y="500.1074">ArchiveSimulation</text><line style="stroke: #A80036; stroke-width: 1.5;" x1="793.519" x2="1026.519" y1="511.9531" y2="511.9531"/><ellipse cx="803.519" cy="523.8555" fill="none" rx="3" ry="3" style="stroke: #038048; stroke-width: 1.0;"/><text fill="#000000" font-family="sans-serif" font-size="11" lengthAdjust="spacingAndGlyphs" textLength="199" x="812.519" y="526.1636">List&lt;ArchiveTourSimulation&gt; tours</text><line style="stroke: #A80036; stroke-width: 1.5;" x1="793.519" x2="1026.519" y1="532.7578" y2="532.7578"/><ellipse cx="803.519" cy="544.6602" fill="#84BE84" rx="3" ry="3" style="stroke: #038048; stroke-width: 1.0;"/><text fill="#000000" font-family="sans-serif" font-size="11" lengthAdjust="spacingAndGlyphs" textLength="209" x="812.519" y="546.9683">void addTour(ArchiveTourSimulation)</text><ellipse cx="803.519" cy="557.4648" fill="#84BE84" rx="3" ry="3" style="stroke: #038048; stroke-width: 1.0;"/><text fill="#000000" font-family="sans-serif" font-size="11" lengthAdjust="spacingAndGlyphs" textLength="78" x="812.519" y="559.7729">void afficher()</text><rect fill="#FEFECE" filter="url(#f1)" height="86.4141" style="stroke: #A80036; stroke-width: 1.5;" width="170" x="824.769" y="645.9531"/><ellipse cx="839.769" cy="661.9531" fill="#ADD1B2" rx="11" ry="11" style="stroke: #A80036; stroke-width: 1.0;"/><path d="M842.1128,657.625 L842.2846,657.7031 C842.5034,657.3906 842.7065,657.2969 843.0034,657.2969 C843.3003,657.2969 843.5815,657.4375 843.7378,657.7031 C843.8315,657.8594 843.8471,657.9844 843.8471,658.4219 L843.8471,659.8438 C843.8471,660.2656 843.8159,660.4531 843.7065,660.6094 C843.5346,660.8281 843.269,660.9688 843.0034,660.9688 C842.7846,660.9688 842.5503,660.8594 842.4096,660.7188 C842.269,660.5938 842.2378,660.4688 842.1753,660.0625 C842.0815,659.6563 841.9096,659.4375 841.4253,659.1563 C840.9565,658.9063 840.3471,658.75 839.769,658.75 C838.0346,658.75 836.7846,660.0625 836.7846,661.8438 L836.7846,662.9375 C836.7846,664.6406 838.0815,665.7344 840.1284,665.7344 C840.894,665.7344 841.5815,665.6094 842.0034,665.3438 C842.1909,665.25 842.1909,665.25 842.644,664.7656 C842.8315,664.5781 843.0346,664.5 843.2534,664.5 C843.7221,664.5 844.1128,664.8906 844.1128,665.3438 C844.1128,665.7344 843.7846,666.1875 843.2065,666.5938 C842.4565,667.1406 841.3003,667.4375 840.0815,667.4375 C837.1909,667.4375 835.0815,665.5469 835.0815,662.9688 L835.0815,661.8438 C835.0815,659.125 837.0815,657.0469 839.7065,657.0469 C840.5815,657.0469 841.1753,657.1875 842.1128,657.625 Z "/><text fill="#000000" font-family="sans-serif" font-size="12" lengthAdjust="spacingAndGlyphs" textLength="138" x="853.769" y="666.1074">ArchiveTourSimulation</text><line style="stroke: #A80036; stroke-width: 1.5;" x1="825.769" x2="993.769" y1="677.9531" y2="677.9531"/><rect fill="none" height="6" style="stroke: #C82930; stroke-width: 1.0;" width="6" x="832.769" y="686.8555"/><text fill="#000000" font-family="sans-serif" font-size="11" lengthAdjust="spacingAndGlyphs" textLength="127" x="844.769" y="692.1636">EtatEntite[] etatsEntite</text><line style="stroke: #A80036; stroke-width: 1.5;" x1="825.769" x2="993.769" y1="698.7578" y2="698.7578"/><ellipse cx="835.769" cy="710.6602" fill="#84BE84" rx="3" ry="3" style="stroke: #038048; stroke-width: 1.0;"/><text fill="#000000" font-family="sans-serif" font-size="11" lengthAdjust="spacingAndGlyphs" textLength="114" x="844.769" y="712.9683">void getEtatsEntite()</text><ellipse cx="835.769" cy="723.4648" fill="#84BE84" rx="3" ry="3" style="stroke: #038048; stroke-width: 1.0;"/><text fill="#000000" font-family="sans-serif" font-size="11" lengthAdjust="spacingAndGlyphs" textLength="80" x="844.769" y="725.7729">void toString()</text><rect fill="#FEFECE" filter="url(#f1)" height="150.4375" style="stroke: #A80036; stroke-width: 1.5;" width="117" x="851.519" y="798.9531"/><ellipse cx="876.419" cy="814.9531" fill="#ADD1B2" rx="11" ry="11" style="stroke: #A80036; stroke-width: 1.0;"/><path d="M878.7628,810.625 L878.9346,810.7031 C879.1534,810.3906 879.3565,810.2969 879.6534,810.2969 C879.9503,810.2969 880.2315,810.4375 880.3878,810.7031 C880.4815,810.8594 880.4971,810.9844 880.4971,811.4219 L880.4971,812.8438 C880.4971,813.2656 880.4659,813.4531 880.3565,813.6094 C880.1846,813.8281 879.919,813.9688 879.6534,813.9688 C879.4346,813.9688 879.2003,813.8594 879.0596,813.7188 C878.919,813.5938 878.8878,813.4688 878.8253,813.0625 C878.7315,812.6563 878.5596,812.4375 878.0753,812.1563 C877.6065,811.9063 876.9971,811.75 876.419,811.75 C874.6846,811.75 873.4346,813.0625 873.4346,814.8438 L873.4346,815.9375 C873.4346,817.6406 874.7315,818.7344 876.7784,818.7344 C877.544,818.7344 878.2315,818.6094 878.6534,818.3438 C878.8409,818.25 878.8409,818.25 879.294,817.7656 C879.4815,817.5781 879.6846,817.5 879.9034,817.5 C880.3721,817.5 880.7628,817.8906 880.7628,818.3438 C880.7628,818.7344 880.4346,819.1875 879.8565,819.5938 C879.1065,820.1406 877.9503,820.4375 876.7315,820.4375 C873.8409,820.4375 871.7315,818.5469 871.7315,815.9688 L871.7315,814.8438 C871.7315,812.125 873.7315,810.0469 876.3565,810.0469 C877.2315,810.0469 877.8253,810.1875 878.7628,810.625 Z "/><text fill="#000000" font-family="sans-serif" font-size="12" lengthAdjust="spacingAndGlyphs" textLength="63" x="892.619" y="819.1074">EtatEntite</text><line style="stroke: #A80036; stroke-width: 1.5;" x1="852.519" x2="967.519" y1="830.9531" y2="830.9531"/><rect fill="none" height="6" style="stroke: #C82930; stroke-width: 1.0;" width="6" x="859.519" y="839.8555"/><text fill="#000000" font-family="sans-serif" font-size="11" lengthAdjust="spacingAndGlyphs" textLength="24" x="871.519" y="845.1636">int x</text><rect fill="none" height="6" style="stroke: #C82930; stroke-width: 1.0;" width="6" x="859.519" y="852.6602"/><text fill="#000000" font-family="sans-serif" font-size="11" lengthAdjust="spacingAndGlyphs" textLength="24" x="871.519" y="857.9683">int y</text><rect fill="none" height="6" style="stroke: #C82930; stroke-width: 1.0;" width="6" x="859.519" y="865.4648"/><text fill="#000000" font-family="sans-serif" font-size="11" lengthAdjust="spacingAndGlyphs" textLength="63" x="871.519" y="870.7729">String nom</text><rect fill="none" height="6" style="stroke: #C82930; stroke-width: 1.0;" width="6" x="859.519" y="878.2695"/><text fill="#000000" font-family="sans-serif" font-size="11" lengthAdjust="spacingAndGlyphs" textLength="62" x="871.519" y="883.5776">String type</text><line style="stroke: #A80036; stroke-width: 1.5;" x1="852.519" x2="967.519" y1="890.1719" y2="890.1719"/><ellipse cx="862.519" cy="902.0742" fill="#84BE84" rx="3" ry="3" style="stroke: #038048; stroke-width: 1.0;"/><text fill="#000000" font-family="sans-serif" font-size="11" lengthAdjust="spacingAndGlyphs" textLength="51" x="871.519" y="904.3823">int getX()</text><ellipse cx="862.519" cy="914.8789" fill="#84BE84" rx="3" ry="3" style="stroke: #038048; stroke-width: 1.0;"/><text fill="#000000" font-family="sans-serif" font-size="11" lengthAdjust="spacingAndGlyphs" textLength="51" x="871.519" y="917.187">int getY()</text><ellipse cx="862.519" cy="927.6836" fill="#84BE84" rx="3" ry="3" style="stroke: #038048; stroke-width: 1.0;"/><text fill="#000000" font-family="sans-serif" font-size="11" lengthAdjust="spacingAndGlyphs" textLength="90" x="871.519" y="929.9917">String getNom()</text><ellipse cx="862.519" cy="940.4883" fill="#84BE84" rx="3" ry="3" style="stroke: #038048; stroke-width: 1.0;"/><text fill="#000000" font-family="sans-serif" font-size="11" lengthAdjust="spacingAndGlyphs" textLength="91" x="871.519" y="942.7964">String getType()</text><rect fill="#FEFECE" filter="url(#f1)" height="99.2188" style="stroke: #A80036; stroke-width: 1.5;" width="160" x="332.769" y="639.4531"/><ellipse cx="381.019" cy="655.4531" fill="#ADD1B2" rx="11" ry="11" style="stroke: #A80036; stroke-width: 1.0;"/><path d="M383.3628,651.125 L383.5346,651.2031 C383.7534,650.8906 383.9565,650.7969 384.2534,650.7969 C384.5503,650.7969 384.8315,650.9375 384.9878,651.2031 C385.0815,651.3594 385.0971,651.4844 385.0971,651.9219 L385.0971,653.3438 C385.0971,653.7656 385.0659,653.9531 384.9565,654.1094 C384.7846,654.3281 384.519,654.4688 384.2534,654.4688 C384.0346,654.4688 383.8003,654.3594 383.6596,654.2188 C383.519,654.0938 383.4878,653.9688 383.4253,653.5625 C383.3315,653.1563 383.1596,652.9375 382.6753,652.6563 C382.2065,652.4063 381.5971,652.25 381.019,652.25 C379.2846,652.25 378.0346,653.5625 378.0346,655.3438 L378.0346,656.4375 C378.0346,658.1406 379.3315,659.2344 381.3784,659.2344 C382.144,659.2344 382.8315,659.1094 383.2534,658.8438 C383.4409,658.75 383.4409,658.75 383.894,658.2656 C384.0815,658.0781 384.2846,658 384.5034,658 C384.9721,658 385.3628,658.3906 385.3628,658.8438 C385.3628,659.2344 385.0346,659.6875 384.4565,660.0938 C383.7065,660.6406 382.5503,660.9375 381.3315,660.9375 C378.4409,660.9375 376.3315,659.0469 376.3315,656.4688 L376.3315,655.3438 C376.3315,652.625 378.3315,650.5469 380.9565,650.5469 C381.8315,650.5469 382.4253,650.6875 383.3628,651.125 Z "/><text fill="#000000" font-family="sans-serif" font-size="12" lengthAdjust="spacingAndGlyphs" textLength="55" x="401.519" y="659.6074">Manager</text><line style="stroke: #A80036; stroke-width: 1.5;" x1="333.769" x2="491.769" y1="671.4531" y2="671.4531"/><text fill="#000000" font-family="sans-serif" font-size="11" lengthAdjust="spacingAndGlyphs" textLength="131" x="338.769" y="685.6636">boolean besoinAnalyse</text><line style="stroke: #A80036; stroke-width: 1.5;" x1="333.769" x2="491.769" y1="692.2578" y2="692.2578"/><ellipse cx="343.769" cy="704.1602" fill="#84BE84" rx="3" ry="3" style="stroke: #038048; stroke-width: 1.0;"/><text fill="#000000" font-family="sans-serif" font-size="11" lengthAdjust="spacingAndGlyphs" textLength="134" x="352.769" y="706.4683">void analyserSituation()</text><ellipse cx="343.769" cy="716.9648" fill="#84BE84" rx="3" ry="3" style="stroke: #038048; stroke-width: 1.0;"/><text fill="#000000" font-family="sans-serif" font-size="11" lengthAdjust="spacingAndGlyphs" textLength="57" x="352.769" y="719.2729">void agir()</text><ellipse cx="343.769" cy="729.7695" fill="#84BE84" rx="3" ry="3" style="stroke: #038048; stroke-width: 1.0;"/><text fill="#000000" font-family="sans-serif" font-size="11" lengthAdjust="spacingAndGlyphs" textLength="82" x="352.769" y="732.0776">void prevenir()</text><rect fill="#FEFECE" filter="url(#f1)" height="73.6094" style="stroke: #A80036; stroke-width: 1.5;" width="127" x="630.519" y="485.9531"/><ellipse cx="645.519" cy="501.9531" fill="#ADD1B2" rx="11" ry="11" style="stroke: #A80036; stroke-width: 1.0;"/><path d="M647.8628,497.625 L648.0346,497.7031 C648.2534,497.3906 648.4565,497.2969 648.7534,497.2969 C649.0503,497.2969 649.3315,497.4375 649.4878,497.7031 C649.5815,497.8594 649.5971,497.9844 649.5971,498.4219 L649.5971,499.8438 C649.5971,500.2656 649.5659,500.4531 649.4565,500.6094 C649.2846,500.8281 649.019,500.9688 648.7534,500.9688 C648.5346,500.9688 648.3003,500.8594 648.1596,500.7188 C648.019,500.5938 647.9878,500.4688 647.9253,500.0625 C647.8315,499.6563 647.6596,499.4375 647.1753,499.1563 C646.7065,498.9063 646.0971,498.75 645.519,498.75 C643.7846,498.75 642.5346,500.0625 642.5346,501.8438 L642.5346,502.9375 C642.5346,504.6406 643.8315,505.7344 645.8784,505.7344 C646.644,505.7344 647.3315,505.6094 647.7534,505.3438 C647.9409,505.25 647.9409,505.25 648.394,504.7656 C648.5815,504.5781 648.7846,504.5 649.0034,504.5 C649.4721,504.5 649.8628,504.8906 649.8628,505.3438 C649.8628,505.7344 649.5346,506.1875 648.9565,506.5938 C648.2065,507.1406 647.0503,507.4375 645.8315,507.4375 C642.9409,507.4375 640.8315,505.5469 640.8315,502.9688 L640.8315,501.8438 C640.8315,499.125 642.8315,497.0469 645.4565,497.0469 C646.3315,497.0469 646.9253,497.1875 647.8628,497.625 Z "/><text fill="#000000" font-family="sans-serif" font-size="12" lengthAdjust="spacingAndGlyphs" textLength="95" x="659.519" y="506.1074">CarteDeTerrain</text><line style="stroke: #A80036; stroke-width: 1.5;" x1="631.519" x2="756.519" y1="517.9531" y2="517.9531"/><rect fill="none" height="6" style="stroke: #C82930; stroke-width: 1.0;" width="6" x="638.519" y="526.8555"/><text fill="#000000" font-family="sans-serif" font-size="11" lengthAdjust="spacingAndGlyphs" textLength="63" x="650.519" y="532.1636">int carte[][]</text><line style="stroke: #A80036; stroke-width: 1.5;" x1="631.519" x2="756.519" y1="538.7578" y2="538.7578"/><ellipse cx="641.519" cy="550.6602" fill="#84BE84" rx="3" ry="3" style="stroke: #038048; stroke-width: 1.0;"/><text fill="#000000" font-family="sans-serif" font-size="11" lengthAdjust="spacingAndGlyphs" textLength="93" x="650.519" y="552.9683">int getDifficulte()</text><rect fill="#FEFECE" filter="url(#f1)" height="112.0234" style="stroke: #A80036; stroke-width: 1.5;" width="164" x="430.769" y="466.9531"/><ellipse cx="490.019" cy="482.9531" fill="#ADD1B2" rx="11" ry="11" style="stroke: #A80036; stroke-width: 1.0;"/><path d="M492.3628,478.625 L492.5346,478.7031 C492.7534,478.3906 492.9565,478.2969 493.2534,478.2969 C493.5503,478.2969 493.8315,478.4375 493.9878,478.7031 C494.0815,478.8594 494.0971,478.9844 494.0971,479.4219 L494.0971,480.8438 C494.0971,481.2656 494.0659,481.4531 493.9565,481.6094 C493.7846,481.8281 493.519,481.9688 493.2534,481.9688 C493.0346,481.9688 492.8003,481.8594 492.6596,481.7188 C492.519,481.5938 492.4878,481.4688 492.4253,481.0625 C492.3315,480.6563 492.1596,480.4375 491.6753,480.1563 C491.2065,479.9063 490.5971,479.75 490.019,479.75 C488.2846,479.75 487.0346,481.0625 487.0346,482.8438 L487.0346,483.9375 C487.0346,485.6406 488.3315,486.7344 490.3784,486.7344 C491.144,486.7344 491.8315,486.6094 492.2534,486.3438 C492.4409,486.25 492.4409,486.25 492.894,485.7656 C493.0815,485.5781 493.2846,485.5 493.5034,485.5 C493.9721,485.5 494.3628,485.8906 494.3628,486.3438 C494.3628,486.7344 494.0346,487.1875 493.4565,487.5938 C492.7065,488.1406 491.5503,488.4375 490.3315,488.4375 C487.4409,488.4375 485.3315,486.5469 485.3315,483.9688 L485.3315,482.8438 C485.3315,480.125 487.3315,478.0469 489.9565,478.0469 C490.8315,478.0469 491.4253,478.1875 492.3628,478.625 Z "/><text fill="#000000" font-family="sans-serif" font-size="12" lengthAdjust="spacingAndGlyphs" textLength="37" x="510.519" y="487.1074">Robot</text><line style="stroke: #A80036; stroke-width: 1.5;" x1="431.769" x2="593.769" y1="498.9531" y2="498.9531"/><ellipse cx="441.769" cy="510.8555" fill="none" rx="3" ry="3" style="stroke: #038048; stroke-width: 1.0;"/><text fill="#000000" font-family="sans-serif" font-size="11" lengthAdjust="spacingAndGlyphs" textLength="24" x="450.769" y="513.1636">int x</text><ellipse cx="441.769" cy="523.6602" fill="none" rx="3" ry="3" style="stroke: #038048; stroke-width: 1.0;"/><text fill="#000000" font-family="sans-serif" font-size="11" lengthAdjust="spacingAndGlyphs" textLength="24" x="450.769" y="525.9683">int y</text><line style="stroke: #A80036; stroke-width: 1.5;" x1="431.769" x2="593.769" y1="532.5625" y2="532.5625"/><ellipse cx="441.769" cy="544.4648" fill="#84BE84" rx="3" ry="3" style="stroke: #038048; stroke-width: 1.0;"/><text fill="#000000" font-family="sans-serif" font-size="11" lengthAdjust="spacingAndGlyphs" textLength="138" x="450.769" y="546.7729">EtatEntite getEtatEntite()</text><ellipse cx="441.769" cy="557.2695" fill="#84BE84" rx="3" ry="3" style="stroke: #038048; stroke-width: 1.0;"/><text fill="#000000" font-family="sans-serif" font-size="11" lengthAdjust="spacingAndGlyphs" textLength="57" x="450.769" y="559.5776">void agir()</text><ellipse cx="441.769" cy="570.0742" fill="#84BE84" rx="3" ry="3" style="stroke: #038048; stroke-width: 1.0;"/><text fill="#000000" font-family="sans-serif" font-size="11" lengthAdjust="spacingAndGlyphs" textLength="124" x="450.769" y="572.3823">void notifierManager()</text><rect fill="#FEFECE" filter="url(#f1)" height="112.0234" style="stroke: #A80036; stroke-width: 1.5;" width="164" x="231.769" y="466.9531"/><ellipse cx="283.019" cy="482.9531" fill="#ADD1B2" rx="11" ry="11" style="stroke: #A80036; stroke-width: 1.0;"/><path d="M285.3628,478.625 L285.5346,478.7031 C285.7534,478.3906 285.9565,478.2969 286.2534,478.2969 C286.5503,478.2969 286.8315,478.4375 286.9878,478.7031 C287.0815,478.8594 287.0971,478.9844 287.0971,479.4219 L287.0971,480.8438 C287.0971,481.2656 287.0659,481.4531 286.9565,481.6094 C286.7846,481.8281 286.519,481.9688 286.2534,481.9688 C286.0346,481.9688 285.8003,481.8594 285.6596,481.7188 C285.519,481.5938 285.4878,481.4688 285.4253,481.0625 C285.3315,480.6563 285.1596,480.4375 284.6753,480.1563 C284.2065,479.9063 283.5971,479.75 283.019,479.75 C281.2846,479.75 280.0346,481.0625 280.0346,482.8438 L280.0346,483.9375 C280.0346,485.6406 281.3315,486.7344 283.3784,486.7344 C284.144,486.7344 284.8315,486.6094 285.2534,486.3438 C285.4409,486.25 285.4409,486.25 285.894,485.7656 C286.0815,485.5781 286.2846,485.5 286.5034,485.5 C286.9721,485.5 287.3628,485.8906 287.3628,486.3438 C287.3628,486.7344 287.0346,487.1875 286.4565,487.5938 C285.7065,488.1406 284.5503,488.4375 283.3315,488.4375 C280.4409,488.4375 278.3315,486.5469 278.3315,483.9688 L278.3315,482.8438 C278.3315,480.125 280.3315,478.0469 282.9565,478.0469 C283.8315,478.0469 284.4253,478.1875 285.3628,478.625 Z "/><text fill="#000000" font-family="sans-serif" font-size="12" lengthAdjust="spacingAndGlyphs" textLength="53" x="303.519" y="487.1074">Incendie</text><line style="stroke: #A80036; stroke-width: 1.5;" x1="232.769" x2="394.769" y1="498.9531" y2="498.9531"/><ellipse cx="242.769" cy="510.8555" fill="none" rx="3" ry="3" style="stroke: #038048; stroke-width: 1.0;"/><text fill="#000000" font-family="sans-serif" font-size="11" lengthAdjust="spacingAndGlyphs" textLength="24" x="251.769" y="513.1636">int x</text><ellipse cx="242.769" cy="523.6602" fill="none" rx="3" ry="3" style="stroke: #038048; stroke-width: 1.0;"/><text fill="#000000" font-family="sans-serif" font-size="11" lengthAdjust="spacingAndGlyphs" textLength="24" x="251.769" y="525.9683">int y</text><line style="stroke: #A80036; stroke-width: 1.5;" x1="232.769" x2="394.769" y1="532.5625" y2="532.5625"/><ellipse cx="242.769" cy="544.4648" fill="#84BE84" rx="3" ry="3" style="stroke: #038048; stroke-width: 1.0;"/><text fill="#000000" font-family="sans-serif" font-size="11" lengthAdjust="spacingAndGlyphs" textLength="138" x="251.769" y="546.7729">EtatEntite getEtatEntite()</text><ellipse cx="242.769" cy="557.2695" fill="#84BE84" rx="3" ry="3" style="stroke: #038048; stroke-width: 1.0;"/><text fill="#000000" font-family="sans-serif" font-size="11" lengthAdjust="spacingAndGlyphs" textLength="57" x="251.769" y="559.5776">void agir()</text><ellipse cx="242.769" cy="570.0742" fill="#84BE84" rx="3" ry="3" style="stroke: #038048; stroke-width: 1.0;"/><text fill="#000000" font-family="sans-serif" font-size="11" lengthAdjust="spacingAndGlyphs" textLength="124" x="251.769" y="572.3823">void notifierManager()</text><rect fill="#FEFECE" filter="url(#f1)" height="60.8047" style="stroke: #A80036; stroke-width: 1.5;" width="141" x="55.5194" y="492.4531"/><ellipse cx="70.5194" cy="508.4531" fill="#ADD1B2" rx="11" ry="11" style="stroke: #A80036; stroke-width: 1.0;"/><path d="M72.8631,504.125 L73.035,504.2031 C73.2538,503.8906 73.4569,503.7969 73.7538,503.7969 C74.0506,503.7969 74.3319,503.9375 74.4881,504.2031 C74.5819,504.3594 74.5975,504.4844 74.5975,504.9219 L74.5975,506.3438 C74.5975,506.7656 74.5663,506.9531 74.4569,507.1094 C74.285,507.3281 74.0194,507.4688 73.7538,507.4688 C73.535,507.4688 73.3006,507.3594 73.16,507.2188 C73.0194,507.0938 72.9881,506.9688 72.9256,506.5625 C72.8319,506.1563 72.66,505.9375 72.1756,505.6563 C71.7069,505.4063 71.0975,505.25 70.5194,505.25 C68.785,505.25 67.535,506.5625 67.535,508.3438 L67.535,509.4375 C67.535,511.1406 68.8319,512.2344 70.8788,512.2344 C71.6444,512.2344 72.3319,512.1094 72.7538,511.8438 C72.9413,511.75 72.9413,511.75 73.3944,511.2656 C73.5819,511.0781 73.785,511 74.0038,511 C74.4725,511 74.8631,511.3906 74.8631,511.8438 C74.8631,512.2344 74.535,512.6875 73.9569,513.0938 C73.2069,513.6406 72.0506,513.9375 70.8319,513.9375 C67.9413,513.9375 65.8319,512.0469 65.8319,509.4688 L65.8319,508.3438 C65.8319,505.625 67.8319,503.5469 70.4569,503.5469 C71.3319,503.5469 71.9256,503.6875 72.8631,504.125 Z "/><text fill="#000000" font-family="sans-serif" font-size="12" lengthAdjust="spacingAndGlyphs" textLength="109" x="84.5194" y="512.6074">JeuDeParametres</text><line style="stroke: #A80036; stroke-width: 1.5;" x1="56.5194" x2="195.5194" y1="524.4531" y2="524.4531"/><ellipse cx="66.5194" cy="536.3555" fill="none" rx="3" ry="3" style="stroke: #038048; stroke-width: 1.0;"/><text fill="#000000" font-family="sans-serif" font-size="11" lengthAdjust="spacingAndGlyphs" textLength="106" x="75.5194" y="538.6636">String sensDuVent</text><line style="stroke: #A80036; stroke-width: 1.5;" x1="56.5194" x2="195.5194" y1="545.2578" y2="545.2578"/><rect fill="#FEFECE" filter="url(#f1)" height="60.8047" style="stroke: #A80036; stroke-width: 1.5;" width="108" x="1083.77" y="492.4531"/><ellipse cx="1099.22" cy="508.4531" fill="#B4A7E5" rx="11" ry="11" style="stroke: #A80036; stroke-width: 1.0;"/><path d="M1100.1731,505.2344 L1100.1731,511.75 L1101.8919,511.75 C1102.345,511.75 1102.4856,511.7813 1102.6575,511.9063 C1102.8919,512.0781 1103.0013,512.3281 1103.0013,512.6094 C1103.0013,513.1719 1102.6419,513.4531 1101.8919,513.4531 L1096.7513,513.4531 C1096.345,513.4531 1096.1419,513.4063 1095.9856,513.2813 C1095.7669,513.125 1095.6263,512.8594 1095.6263,512.6094 C1095.6263,512.3125 1095.7825,512.0313 1096.0325,511.875 C1096.1888,511.7656 1096.3138,511.75 1096.7513,511.75 L1098.47,511.75 L1098.47,505.2344 L1096.7513,505.2344 C1096.3294,505.2344 1096.1419,505.2031 1095.9856,505.0938 C1095.7669,504.9219 1095.6263,504.6719 1095.6263,504.3906 C1095.6263,504.1094 1095.7825,503.8125 1096.0325,503.6563 C1096.1888,503.5625 1096.3138,503.5469 1096.7513,503.5469 L1101.8919,503.5469 C1102.345,503.5469 1102.4856,503.5781 1102.6575,503.6875 C1102.8919,503.8594 1103.0013,504.125 1103.0013,504.3906 C1103.0013,504.6875 1102.8606,504.9688 1102.595,505.125 C1102.47,505.2031 1102.2825,505.2344 1101.8919,505.2344 Z "/><text fill="#000000" font-family="sans-serif" font-size="12" font-style="italic" lengthAdjust="spacingAndGlyphs" textLength="75" x="1113.32" y="512.6074">Observateur</text><line style="stroke: #A80036; stroke-width: 1.5;" x1="1084.77" x2="1190.77" y1="524.4531" y2="524.4531"/><line style="stroke: #A80036; stroke-width: 1.5;" x1="1084.77" x2="1190.77" y1="532.4531" y2="532.4531"/><ellipse cx="1094.77" cy="544.3555" fill="#84BE84" rx="3" ry="3" style="stroke: #038048; stroke-width: 1.0;"/><text fill="#000000" font-family="sans-serif" font-size="11" lengthAdjust="spacingAndGlyphs" textLength="82" x="1103.77" y="546.6636">void prevenir()</text><path d="M584.9,167.1321 C606.664,184.8691 631.571,206.1811 652.769,226.9531 C736.985,309.4741 825.154,415.7181 873.196,475.5731 " fill="none" style="stroke: #A80036; stroke-width: 1.0;"/><polygon fill="#A80036" points="876.585,479.8021,874.0773,470.2779,873.4579,475.9007,867.835,475.2813,876.585,479.8021" style="stroke: #A80036; stroke-width: 1.0;"/><path d="M526.595,167.3971 C524.99,183.7071 523.096,202.9711 521.232,221.9201 " fill="none" style="stroke: #A80036; stroke-width: 1.0;"/><polygon fill="#A80036" points="520.707,227.2541,525.5698,218.6895,521.197,222.2782,517.6083,217.9054,520.707,227.2541" style="stroke: #A80036; stroke-width: 1.0;"/><path d="M390.667,321.9741 C264.796,337.1871 80.9896,368.2451 37.7694,422.9531 C-5.2106,477.3571 -3.8561,523.5061 37.7694,578.9531 C72.5441,625.2751 227.954,658.3201 327.473,675.1751 " fill="none" style="stroke: #A80036; stroke-width: 1.0;"/><polygon fill="#A80036" points="332.464,676.0151,324.253,670.5765,327.5334,675.185,322.9248,678.4654,332.464,676.0151" style="stroke: #A80036; stroke-width: 1.0;"/><path d="M634.871,355.9031 C679.925,374.5841 730.705,397.7251 774.769,422.9531 C802.07,438.5831 830.418,458.6941 854.048,476.7031 " fill="none" style="stroke: #A80036; stroke-width: 1.0;"/><polygon fill="#A80036" points="858.1,479.8061,853.3843,471.1596,854.1295,476.7672,848.522,477.5124,858.1,479.8061" style="stroke: #A80036; stroke-width: 1.0;"/><path d="M584.711,390.4821 C594.212,401.3401 603.771,412.3791 612.769,422.9531 C629.094,442.1351 646.853,463.7531 661.571,481.8831 " fill="none" style="stroke: #A80036; stroke-width: 1.0;"/><polygon fill="#A80036" points="664.857,485.9341,662.2953,476.4242,661.7078,482.0505,656.0815,481.463,664.857,485.9341" style="stroke: #A80036; stroke-width: 1.0;"/><path d="M512.769,390.7061 C512.769,414.2131 512.769,439.4801 512.769,461.5061 " fill="none" style="stroke: #A80036; stroke-width: 1.0;"/><polygon fill="#A80036" points="512.769,466.7381,516.769,457.7381,512.769,461.7381,508.769,457.7381,512.769,466.7381" style="stroke: #A80036; stroke-width: 1.0;"/><path d="M436.968,390.7061 C414.437,414.7091 390.184,440.5471 369.206,462.8951 " fill="none" style="stroke: #A80036; stroke-width: 1.0;"/><polygon fill="#A80036" points="365.599,466.7381,374.6746,462.9128,369.0206,463.0922,368.8412,457.4382,365.599,466.7381" style="stroke: #A80036; stroke-width: 1.0;"/><path d="M390.619,341.3981 C333.733,359.6081 267.027,386.3031 213.769,422.9531 C188.373,440.4301 165.442,466.7521 149.36,487.8631 " fill="none" style="stroke: #A80036; stroke-width: 1.0;"/><polygon fill="#A80036" points="146.236,492.0111,154.8459,487.2288,149.2442,488.0173,148.4557,482.4157,146.236,492.0111" style="stroke: #A80036; stroke-width: 1.0;"/><path d="M1077.01,563.6911 C1066.25,569.4971 1054.92,574.8801 1043.77,578.9531 C943.589,615.5471 639.106,658.5191 492.853,677.7501 " fill="none" style="stroke: #A80036; stroke-width: 1.0;"/><polygon fill="none" points="1073.61,557.5731,1094.44,553.6791,1080.58,569.7121,1073.61,557.5731" style="stroke: #A80036; stroke-width: 1.0;"/><path d="M472.363,590.2191 C462.346,606.6481 451.794,623.9531 442.4,639.3601 " fill="none" style="stroke: #A80036; stroke-width: 1.0;"/><polygon fill="none" points="479.193,579.0191,472.6541,582.0594,472.9455,589.2646,479.4844,586.2243,479.193,579.0191" style="stroke: #A80036; stroke-width: 1.0;"/><path d="M353.771,590.2191 C363.689,606.6481 374.135,623.9531 383.436,639.3601 " fill="none" style="stroke: #A80036; stroke-width: 1.0;"/><polygon fill="none" points="347.01,579.0191,346.6867,586.223,353.212,589.2921,353.5354,582.0883,347.01,579.0191" style="stroke: #A80036; stroke-width: 1.0;"/><path d="M909.769,566.1871 C909.769,588.9511 909.769,617.1101 909.769,640.6141 " fill="none" style="stroke: #A80036; stroke-width: 1.0;"/><polygon fill="#A80036" points="909.769,645.8621,913.769,636.8621,909.769,640.8621,905.769,636.8621,909.769,645.8621" style="stroke: #A80036; stroke-width: 1.0;"/><path d="M909.769,732.3971 C909.769,750.6761 909.769,772.6641 909.769,793.7621 " fill="none" style="stroke: #A80036; stroke-width: 1.0;"/><polygon fill="#A80036" points="909.769,798.8171,913.769,789.8171,909.769,793.8171,905.769,789.8171,909.769,798.8171" style="stroke: #A80036; stroke-width: 1.0;"/></g></svg>