<?xml version="1.0" encoding="UTF-8" standalone="yes"?>
<svg xmlns="http://www.w3.org/2000/svg" xmlns:xlink="http://www.w3.org/1999/xlink" height="707pt" style="width:1451px;height:707px;" version="1.1" viewBox="0 0 1451 707" width="1451pt"><defs><filter height="300%" id="f1" width="300%" x="-1" y="-1"><feGaussianBlur result="blurOut" stdDeviation="2.0"/><feColorMatrix in="blurOut" result="blurOut2" type="matrix" values="0 0 0 0 0 0 0 0 0 0 0 0 0 0 0 0 0 0 .4 0"/><feOffset dx="4.0" dy="4.0" in="blurOut2" result="blurOut3"/><feBlend in="SourceGraphic" in2="blurOut3" mode="normal"/></filter></defs><g><text fill="#000000" font-family="sans-serif" font-size="18" lengthAdjust="spacingAndGlyphs" textLength="235" x="625.5" y="16.708">Classes - Package Diagram</text><polygon fill="#FFFFFF" filter="url(#f1)" points="30,52.9531,75,52.9531,82,75.25,365,75.25,365,284.9531,30,284.9531,30,52.9531" style="stroke: #000000; stroke-width: 2.0;"/><line style="stroke: #000000; stroke-width: 2.0;" x1="30" x2="82" y1="75.25" y2="75.25"/><text fill="#000000" font-family="sans-serif" font-size="14" font-weight="bold" lengthAdjust="spacingAndGlyphs" textLength="39" x="33" y="68.9482">View</text><polygon fill="#FFFFFF" filter="url(#f1)" points="405,168.9531,490,168.9531,497,191.25,704,191.25,704,284.9531,405,284.9531,405,168.9531" style="stroke: #000000; stroke-width: 2.0;"/><line style="stroke: #000000; stroke-width: 2.0;" x1="405" x2="497" y1="191.25" y2="191.25"/><text fill="#000000" font-family="sans-serif" font-size="14" font-weight="bold" lengthAdjust="spacingAndGlyphs" textLength="79" x="408" y="184.9482">Controller</text><polygon fill="#FFFFFF" filter="url(#f1)" points="574,324.9531,627,324.9531,634,347.25,1444,347.25,1444,700.9531,574,700.9531,574,324.9531" style="stroke: #000000; stroke-width: 2.0;"/><line style="stroke: #000000; stroke-width: 2.0;" x1="574" x2="634" y1="347.25" y2="347.25"/><text fill="#000000" font-family="sans-serif" font-size="14" font-weight="bold" lengthAdjust="spacingAndGlyphs" textLength="47" x="577" y="340.9482">Model</text><polygon fill="#FFFFFF" filter="url(#f1)" points="1111,376.9531,1258,376.9531,1265,399.25,1412,399.25,1412,584.9531,1111,584.9531,1111,376.9531" style="stroke: #000000; stroke-width: 2.0;"/><line style="stroke: #000000; stroke-width: 2.0;" x1="1111" x2="1265" y1="399.25" y2="399.25"/><text fill="#000000" font-family="sans-serif" font-size="14" font-weight="bold" lengthAdjust="spacingAndGlyphs" textLength="141" x="1114" y="392.9482">Model.Pathfinding</text><polygon fill="#FFFFFF" filter="url(#f1)" points="744,168.9531,824,168.9531,831,191.25,919,191.25,919,284.9531,744,284.9531,744,168.9531" style="stroke: #000000; stroke-width: 2.0;"/><line style="stroke: #000000; stroke-width: 2.0;" x1="744" x2="831" y1="191.25" y2="191.25"/><text fill="#000000" font-family="sans-serif" font-size="14" font-weight="bold" lengthAdjust="spacingAndGlyphs" textLength="74" x="747" y="184.9482">Observer</text><rect fill="#FEFECE" filter="url(#f1)" height="48" style="stroke: #A80036; stroke-width: 1.5;" width="61" x="79.75" y="96.9531"/><ellipse cx="94.75" cy="112.9531" fill="#ADD1B2" rx="11" ry="11" style="stroke: #A80036; stroke-width: 1.0;"/><path d="M97.0938,108.625 L97.2656,108.7031 C97.4844,108.3906 97.6875,108.2969 97.9844,108.2969 C98.2813,108.2969 98.5625,108.4375 98.7188,108.7031 C98.8125,108.8594 98.8281,108.9844 98.8281,109.4219 L98.8281,110.8438 C98.8281,111.2656 98.7969,111.4531 98.6875,111.6094 C98.5156,111.8281 98.25,111.9688 97.9844,111.9688 C97.7656,111.9688 97.5313,111.8594 97.3906,111.7188 C97.25,111.5938 97.2188,111.4688 97.1563,111.0625 C97.0625,110.6563 96.8906,110.4375 96.4063,110.1563 C95.9375,109.9063 95.3281,109.75 94.75,109.75 C93.0156,109.75 91.7656,111.0625 91.7656,112.8438 L91.7656,113.9375 C91.7656,115.6406 93.0625,116.7344 95.1094,116.7344 C95.875,116.7344 96.5625,116.6094 96.9844,116.3438 C97.1719,116.25 97.1719,116.25 97.625,115.7656 C97.8125,115.5781 98.0156,115.5 98.2344,115.5 C98.7031,115.5 99.0938,115.8906 99.0938,116.3438 C99.0938,116.7344 98.7656,117.1875 98.1875,117.5938 C97.4375,118.1406 96.2813,118.4375 95.0625,118.4375 C92.1719,118.4375 90.0625,116.5469 90.0625,113.9688 L90.0625,112.8438 C90.0625,110.125 92.0625,108.0469 94.6875,108.0469 C95.5625,108.0469 96.1563,108.1875 97.0938,108.625 Z "/><text fill="#000000" font-family="sans-serif" font-size="12" lengthAdjust="spacingAndGlyphs" textLength="29" x="108.75" y="117.1074">Main</text><line style="stroke: #A80036; stroke-width: 1.5;" x1="80.75" x2="139.75" y1="128.9531" y2="128.9531"/><line style="stroke: #A80036; stroke-width: 1.5;" x1="80.75" x2="139.75" y1="136.9531" y2="136.9531"/><rect fill="#FEFECE" filter="url(#f1)" height="48" style="stroke: #A80036; stroke-width: 1.5;" width="93" x="201.75" y="96.9531"/><ellipse cx="216.75" cy="112.9531" fill="#ADD1B2" rx="11" ry="11" style="stroke: #A80036; stroke-width: 1.0;"/><path d="M219.0938,108.625 L219.2656,108.7031 C219.4844,108.3906 219.6875,108.2969 219.9844,108.2969 C220.2813,108.2969 220.5625,108.4375 220.7188,108.7031 C220.8125,108.8594 220.8281,108.9844 220.8281,109.4219 L220.8281,110.8438 C220.8281,111.2656 220.7969,111.4531 220.6875,111.6094 C220.5156,111.8281 220.25,111.9688 219.9844,111.9688 C219.7656,111.9688 219.5313,111.8594 219.3906,111.7188 C219.25,111.5938 219.2188,111.4688 219.1563,111.0625 C219.0625,110.6563 218.8906,110.4375 218.4063,110.1563 C217.9375,109.9063 217.3281,109.75 216.75,109.75 C215.0156,109.75 213.7656,111.0625 213.7656,112.8438 L213.7656,113.9375 C213.7656,115.6406 215.0625,116.7344 217.1094,116.7344 C217.875,116.7344 218.5625,116.6094 218.9844,116.3438 C219.1719,116.25 219.1719,116.25 219.625,115.7656 C219.8125,115.5781 220.0156,115.5 220.2344,115.5 C220.7031,115.5 221.0938,115.8906 221.0938,116.3438 C221.0938,116.7344 220.7656,117.1875 220.1875,117.5938 C219.4375,118.1406 218.2813,118.4375 217.0625,118.4375 C214.1719,118.4375 212.0625,116.5469 212.0625,113.9688 L212.0625,112.8438 C212.0625,110.125 214.0625,108.0469 216.6875,108.0469 C217.5625,108.0469 218.1563,108.1875 219.0938,108.625 Z "/><text fill="#000000" font-family="sans-serif" font-size="12" lengthAdjust="spacingAndGlyphs" textLength="61" x="230.75" y="117.1074">MapPanel</text><line style="stroke: #A80036; stroke-width: 1.5;" x1="202.75" x2="293.75" y1="128.9531" y2="128.9531"/><line style="stroke: #A80036; stroke-width: 1.5;" x1="202.75" x2="293.75" y1="136.9531" y2="136.9531"/><rect fill="#FEFECE" filter="url(#f1)" height="48" style="stroke: #A80036; stroke-width: 1.5;" width="111" x="54.75" y="212.9531"/><ellipse cx="69.75" cy="228.9531" fill="#ADD1B2" rx="11" ry="11" style="stroke: #A80036; stroke-width: 1.0;"/><path d="M72.0938,224.625 L72.2656,224.7031 C72.4844,224.3906 72.6875,224.2969 72.9844,224.2969 C73.2813,224.2969 73.5625,224.4375 73.7188,224.7031 C73.8125,224.8594 73.8281,224.9844 73.8281,225.4219 L73.8281,226.8438 C73.8281,227.2656 73.7969,227.4531 73.6875,227.6094 C73.5156,227.8281 73.25,227.9688 72.9844,227.9688 C72.7656,227.9688 72.5313,227.8594 72.3906,227.7188 C72.25,227.5938 72.2188,227.4688 72.1563,227.0625 C72.0625,226.6563 71.8906,226.4375 71.4063,226.1563 C70.9375,225.9063 70.3281,225.75 69.75,225.75 C68.0156,225.75 66.7656,227.0625 66.7656,228.8438 L66.7656,229.9375 C66.7656,231.6406 68.0625,232.7344 70.1094,232.7344 C70.875,232.7344 71.5625,232.6094 71.9844,232.3438 C72.1719,232.25 72.1719,232.25 72.625,231.7656 C72.8125,231.5781 73.0156,231.5 73.2344,231.5 C73.7031,231.5 74.0938,231.8906 74.0938,232.3438 C74.0938,232.7344 73.7656,233.1875 73.1875,233.5938 C72.4375,234.1406 71.2813,234.4375 70.0625,234.4375 C67.1719,234.4375 65.0625,232.5469 65.0625,229.9688 L65.0625,228.8438 C65.0625,226.125 67.0625,224.0469 69.6875,224.0469 C70.5625,224.0469 71.1563,224.1875 72.0938,224.625 Z "/><text fill="#000000" font-family="sans-serif" font-size="12" lengthAdjust="spacingAndGlyphs" textLength="79" x="83.75" y="233.1074">RobotsPanel</text><line style="stroke: #A80036; stroke-width: 1.5;" x1="55.75" x2="164.75" y1="244.9531" y2="244.9531"/><line style="stroke: #A80036; stroke-width: 1.5;" x1="55.75" x2="164.75" y1="252.9531" y2="252.9531"/><rect fill="#FEFECE" filter="url(#f1)" height="48" style="stroke: #A80036; stroke-width: 1.5;" width="132" x="201" y="212.9531"/><ellipse cx="216" cy="228.9531" fill="#ADD1B2" rx="11" ry="11" style="stroke: #A80036; stroke-width: 1.0;"/><path d="M218.3438,224.625 L218.5156,224.7031 C218.7344,224.3906 218.9375,224.2969 219.2344,224.2969 C219.5313,224.2969 219.8125,224.4375 219.9688,224.7031 C220.0625,224.8594 220.0781,224.9844 220.0781,225.4219 L220.0781,226.8438 C220.0781,227.2656 220.0469,227.4531 219.9375,227.6094 C219.7656,227.8281 219.5,227.9688 219.2344,227.9688 C219.0156,227.9688 218.7813,227.8594 218.6406,227.7188 C218.5,227.5938 218.4688,227.4688 218.4063,227.0625 C218.3125,226.6563 218.1406,226.4375 217.6563,226.1563 C217.1875,225.9063 216.5781,225.75 216,225.75 C214.2656,225.75 213.0156,227.0625 213.0156,228.8438 L213.0156,229.9375 C213.0156,231.6406 214.3125,232.7344 216.3594,232.7344 C217.125,232.7344 217.8125,232.6094 218.2344,232.3438 C218.4219,232.25 218.4219,232.25 218.875,231.7656 C219.0625,231.5781 219.2656,231.5 219.4844,231.5 C219.9531,231.5 220.3438,231.8906 220.3438,232.3438 C220.3438,232.7344 220.0156,233.1875 219.4375,233.5938 C218.6875,234.1406 217.5313,234.4375 216.3125,234.4375 C213.4219,234.4375 211.3125,232.5469 211.3125,229.9688 L211.3125,228.8438 C211.3125,226.125 213.3125,224.0469 215.9375,224.0469 C216.8125,224.0469 217.4063,224.1875 218.3438,224.625 Z "/><text fill="#000000" font-family="sans-serif" font-size="12" lengthAdjust="spacingAndGlyphs" textLength="100" x="230" y="233.1074">SimulationPanel</text><line style="stroke: #A80036; stroke-width: 1.5;" x1="202" x2="332" y1="244.9531" y2="244.9531"/><line style="stroke: #A80036; stroke-width: 1.5;" x1="202" x2="332" y1="252.9531" y2="252.9531"/><rect fill="#FEFECE" filter="url(#f1)" height="48" style="stroke: #A80036; stroke-width: 1.5;" width="99" x="448.75" y="212.9531"/><ellipse cx="463.75" cy="228.9531" fill="#ADD1B2" rx="11" ry="11" style="stroke: #A80036; stroke-width: 1.0;"/><path d="M466.0938,224.625 L466.2656,224.7031 C466.4844,224.3906 466.6875,224.2969 466.9844,224.2969 C467.2813,224.2969 467.5625,224.4375 467.7188,224.7031 C467.8125,224.8594 467.8281,224.9844 467.8281,225.4219 L467.8281,226.8438 C467.8281,227.2656 467.7969,227.4531 467.6875,227.6094 C467.5156,227.8281 467.25,227.9688 466.9844,227.9688 C466.7656,227.9688 466.5313,227.8594 466.3906,227.7188 C466.25,227.5938 466.2188,227.4688 466.1563,227.0625 C466.0625,226.6563 465.8906,226.4375 465.4063,226.1563 C464.9375,225.9063 464.3281,225.75 463.75,225.75 C462.0156,225.75 460.7656,227.0625 460.7656,228.8438 L460.7656,229.9375 C460.7656,231.6406 462.0625,232.7344 464.1094,232.7344 C464.875,232.7344 465.5625,232.6094 465.9844,232.3438 C466.1719,232.25 466.1719,232.25 466.625,231.7656 C466.8125,231.5781 467.0156,231.5 467.2344,231.5 C467.7031,231.5 468.0938,231.8906 468.0938,232.3438 C468.0938,232.7344 467.7656,233.1875 467.1875,233.5938 C466.4375,234.1406 465.2813,234.4375 464.0625,234.4375 C461.1719,234.4375 459.0625,232.5469 459.0625,229.9688 L459.0625,228.8438 C459.0625,226.125 461.0625,224.0469 463.6875,224.0469 C464.5625,224.0469 465.1563,224.1875 466.0938,224.625 Z "/><text fill="#000000" font-family="sans-serif" font-size="12" lengthAdjust="spacingAndGlyphs" textLength="67" x="477.75" y="233.1074">Simulateur</text><line style="stroke: #A80036; stroke-width: 1.5;" x1="449.75" x2="546.75" y1="244.9531" y2="244.9531"/><line style="stroke: #A80036; stroke-width: 1.5;" x1="449.75" x2="546.75" y1="252.9531" y2="252.9531"/><rect fill="#FEFECE" filter="url(#f1)" height="48" style="stroke: #A80036; stroke-width: 1.5;" width="97" x="582.75" y="212.9531"/><ellipse cx="597.75" cy="228.9531" fill="#ADD1B2" rx="11" ry="11" style="stroke: #A80036; stroke-width: 1.0;"/><path d="M600.0938,224.625 L600.2656,224.7031 C600.4844,224.3906 600.6875,224.2969 600.9844,224.2969 C601.2813,224.2969 601.5625,224.4375 601.7188,224.7031 C601.8125,224.8594 601.8281,224.9844 601.8281,225.4219 L601.8281,226.8438 C601.8281,227.2656 601.7969,227.4531 601.6875,227.6094 C601.5156,227.8281 601.25,227.9688 600.9844,227.9688 C600.7656,227.9688 600.5313,227.8594 600.3906,227.7188 C600.25,227.5938 600.2188,227.4688 600.1563,227.0625 C600.0625,226.6563 599.8906,226.4375 599.4063,226.1563 C598.9375,225.9063 598.3281,225.75 597.75,225.75 C596.0156,225.75 594.7656,227.0625 594.7656,228.8438 L594.7656,229.9375 C594.7656,231.6406 596.0625,232.7344 598.1094,232.7344 C598.875,232.7344 599.5625,232.6094 599.9844,232.3438 C600.1719,232.25 600.1719,232.25 600.625,231.7656 C600.8125,231.5781 601.0156,231.5 601.2344,231.5 C601.7031,231.5 602.0938,231.8906 602.0938,232.3438 C602.0938,232.7344 601.7656,233.1875 601.1875,233.5938 C600.4375,234.1406 599.2813,234.4375 598.0625,234.4375 C595.1719,234.4375 593.0625,232.5469 593.0625,229.9688 L593.0625,228.8438 C593.0625,226.125 595.0625,224.0469 597.6875,224.0469 C598.5625,224.0469 599.1563,224.1875 600.0938,224.625 Z "/><text fill="#000000" font-family="sans-serif" font-size="12" lengthAdjust="spacingAndGlyphs" textLength="65" x="611.75" y="233.1074">Simulation</text><line style="stroke: #A80036; stroke-width: 1.5;" x1="583.75" x2="678.75" y1="244.9531" y2="244.9531"/><line style="stroke: #A80036; stroke-width: 1.5;" x1="583.75" x2="678.75" y1="252.9531" y2="252.9531"/><rect fill="#FEFECE" filter="url(#f1)" height="48" style="stroke: #A80036; stroke-width: 1.5;" width="142" x="617" y="412.9531"/><ellipse cx="632" cy="428.9531" fill="#ADD1B2" rx="11" ry="11" style="stroke: #A80036; stroke-width: 1.0;"/><path d="M634.3438,424.625 L634.5156,424.7031 C634.7344,424.3906 634.9375,424.2969 635.2344,424.2969 C635.5313,424.2969 635.8125,424.4375 635.9688,424.7031 C636.0625,424.8594 636.0781,424.9844 636.0781,425.4219 L636.0781,426.8438 C636.0781,427.2656 636.0469,427.4531 635.9375,427.6094 C635.7656,427.8281 635.5,427.9688 635.2344,427.9688 C635.0156,427.9688 634.7813,427.8594 634.6406,427.7188 C634.5,427.5938 634.4688,427.4688 634.4063,427.0625 C634.3125,426.6563 634.1406,426.4375 633.6563,426.1563 C633.1875,425.9063 632.5781,425.75 632,425.75 C630.2656,425.75 629.0156,427.0625 629.0156,428.8438 L629.0156,429.9375 C629.0156,431.6406 630.3125,432.7344 632.3594,432.7344 C633.125,432.7344 633.8125,432.6094 634.2344,432.3438 C634.4219,432.25 634.4219,432.25 634.875,431.7656 C635.0625,431.5781 635.2656,431.5 635.4844,431.5 C635.9531,431.5 636.3438,431.8906 636.3438,432.3438 C636.3438,432.7344 636.0156,433.1875 635.4375,433.5938 C634.6875,434.1406 633.5313,434.4375 632.3125,434.4375 C629.4219,434.4375 627.3125,432.5469 627.3125,429.9688 L627.3125,428.8438 C627.3125,426.125 629.3125,424.0469 631.9375,424.0469 C632.8125,424.0469 633.4063,424.1875 634.3438,424.625 Z "/><text fill="#000000" font-family="sans-serif" font-size="12" lengthAdjust="spacingAndGlyphs" textLength="110" x="646" y="433.1074">ArchiveSimulation</text><line style="stroke: #A80036; stroke-width: 1.5;" x1="618" x2="758" y1="444.9531" y2="444.9531"/><line style="stroke: #A80036; stroke-width: 1.5;" x1="618" x2="758" y1="452.9531" y2="452.9531"/><rect fill="#FEFECE" filter="url(#f1)" height="48" style="stroke: #A80036; stroke-width: 1.5;" width="170" x="794" y="412.9531"/><ellipse cx="809" cy="428.9531" fill="#ADD1B2" rx="11" ry="11" style="stroke: #A80036; stroke-width: 1.0;"/><path d="M811.3438,424.625 L811.5156,424.7031 C811.7344,424.3906 811.9375,424.2969 812.2344,424.2969 C812.5313,424.2969 812.8125,424.4375 812.9688,424.7031 C813.0625,424.8594 813.0781,424.9844 813.0781,425.4219 L813.0781,426.8438 C813.0781,427.2656 813.0469,427.4531 812.9375,427.6094 C812.7656,427.8281 812.5,427.9688 812.2344,427.9688 C812.0156,427.9688 811.7813,427.8594 811.6406,427.7188 C811.5,427.5938 811.4688,427.4688 811.4063,427.0625 C811.3125,426.6563 811.1406,426.4375 810.6563,426.1563 C810.1875,425.9063 809.5781,425.75 809,425.75 C807.2656,425.75 806.0156,427.0625 806.0156,428.8438 L806.0156,429.9375 C806.0156,431.6406 807.3125,432.7344 809.3594,432.7344 C810.125,432.7344 810.8125,432.6094 811.2344,432.3438 C811.4219,432.25 811.4219,432.25 811.875,431.7656 C812.0625,431.5781 812.2656,431.5 812.4844,431.5 C812.9531,431.5 813.3438,431.8906 813.3438,432.3438 C813.3438,432.7344 813.0156,433.1875 812.4375,433.5938 C811.6875,434.1406 810.5313,434.4375 809.3125,434.4375 C806.4219,434.4375 804.3125,432.5469 804.3125,429.9688 L804.3125,428.8438 C804.3125,426.125 806.3125,424.0469 808.9375,424.0469 C809.8125,424.0469 810.4063,424.1875 811.3438,424.625 Z "/><text fill="#000000" font-family="sans-serif" font-size="12" lengthAdjust="spacingAndGlyphs" textLength="138" x="823" y="433.1074">ArchiveTourSimulation</text><line style="stroke: #A80036; stroke-width: 1.5;" x1="795" x2="963" y1="444.9531" y2="444.9531"/><line style="stroke: #A80036; stroke-width: 1.5;" x1="795" x2="963" y1="452.9531" y2="452.9531"/><rect fill="#FEFECE" filter="url(#f1)" height="48" style="stroke: #A80036; stroke-width: 1.5;" width="95" x="999.75" y="412.9531"/><ellipse cx="1014.75" cy="428.9531" fill="#ADD1B2" rx="11" ry="11" style="stroke: #A80036; stroke-width: 1.0;"/><path d="M1017.0938,424.625 L1017.2656,424.7031 C1017.4844,424.3906 1017.6875,424.2969 1017.9844,424.2969 C1018.2813,424.2969 1018.5625,424.4375 1018.7188,424.7031 C1018.8125,424.8594 1018.8281,424.9844 1018.8281,425.4219 L1018.8281,426.8438 C1018.8281,427.2656 1018.7969,427.4531 1018.6875,427.6094 C1018.5156,427.8281 1018.25,427.9688 1017.9844,427.9688 C1017.7656,427.9688 1017.5313,427.8594 1017.3906,427.7188 C1017.25,427.5938 1017.2188,427.4688 1017.1563,427.0625 C1017.0625,426.6563 1016.8906,426.4375 1016.4063,426.1563 C1015.9375,425.9063 1015.3281,425.75 1014.75,425.75 C1013.0156,425.75 1011.7656,427.0625 1011.7656,428.8438 L1011.7656,429.9375 C1011.7656,431.6406 1013.0625,432.7344 1015.1094,432.7344 C1015.875,432.7344 1016.5625,432.6094 1016.9844,432.3438 C1017.1719,432.25 1017.1719,432.25 1017.625,431.7656 C1017.8125,431.5781 1018.0156,431.5 1018.2344,431.5 C1018.7031,431.5 1019.0938,431.8906 1019.0938,432.3438 C1019.0938,432.7344 1018.7656,433.1875 1018.1875,433.5938 C1017.4375,434.1406 1016.2813,434.4375 1015.0625,434.4375 C1012.1719,434.4375 1010.0625,432.5469 1010.0625,429.9688 L1010.0625,428.8438 C1010.0625,426.125 1012.0625,424.0469 1014.6875,424.0469 C1015.5625,424.0469 1016.1563,424.1875 1017.0938,424.625 Z "/><text fill="#000000" font-family="sans-serif" font-size="12" lengthAdjust="spacingAndGlyphs" textLength="63" x="1028.75" y="433.1074">EtatEntite</text><line style="stroke: #A80036; stroke-width: 1.5;" x1="1000.75" x2="1093.75" y1="444.9531" y2="444.9531"/><line style="stroke: #A80036; stroke-width: 1.5;" x1="1000.75" x2="1093.75" y1="452.9531" y2="452.9531"/><rect fill="#FEFECE" filter="url(#f1)" height="48" style="stroke: #A80036; stroke-width: 1.5;" width="87" x="644.75" y="520.9531"/><ellipse cx="659.75" cy="536.9531" fill="#ADD1B2" rx="11" ry="11" style="stroke: #A80036; stroke-width: 1.0;"/><path d="M662.0938,532.625 L662.2656,532.7031 C662.4844,532.3906 662.6875,532.2969 662.9844,532.2969 C663.2813,532.2969 663.5625,532.4375 663.7188,532.7031 C663.8125,532.8594 663.8281,532.9844 663.8281,533.4219 L663.8281,534.8438 C663.8281,535.2656 663.7969,535.4531 663.6875,535.6094 C663.5156,535.8281 663.25,535.9688 662.9844,535.9688 C662.7656,535.9688 662.5313,535.8594 662.3906,535.7188 C662.25,535.5938 662.2188,535.4688 662.1563,535.0625 C662.0625,534.6563 661.8906,534.4375 661.4063,534.1563 C660.9375,533.9063 660.3281,533.75 659.75,533.75 C658.0156,533.75 656.7656,535.0625 656.7656,536.8438 L656.7656,537.9375 C656.7656,539.6406 658.0625,540.7344 660.1094,540.7344 C660.875,540.7344 661.5625,540.6094 661.9844,540.3438 C662.1719,540.25 662.1719,540.25 662.625,539.7656 C662.8125,539.5781 663.0156,539.5 663.2344,539.5 C663.7031,539.5 664.0938,539.8906 664.0938,540.3438 C664.0938,540.7344 663.7656,541.1875 663.1875,541.5938 C662.4375,542.1406 661.2813,542.4375 660.0625,542.4375 C657.1719,542.4375 655.0625,540.5469 655.0625,537.9688 L655.0625,536.8438 C655.0625,534.125 657.0625,532.0469 659.6875,532.0469 C660.5625,532.0469 661.1563,532.1875 662.0938,532.625 Z "/><text fill="#000000" font-family="sans-serif" font-size="12" lengthAdjust="spacingAndGlyphs" textLength="55" x="673.75" y="541.1074">Manager</text><line style="stroke: #A80036; stroke-width: 1.5;" x1="645.75" x2="730.75" y1="552.9531" y2="552.9531"/><line style="stroke: #A80036; stroke-width: 1.5;" x1="645.75" x2="730.75" y1="560.9531" y2="560.9531"/><rect fill="#FEFECE" filter="url(#f1)" height="48" style="stroke: #A80036; stroke-width: 1.5;" width="127" x="813.75" y="520.9531"/><ellipse cx="828.75" cy="536.9531" fill="#ADD1B2" rx="11" ry="11" style="stroke: #A80036; stroke-width: 1.0;"/><path d="M831.0938,532.625 L831.2656,532.7031 C831.4844,532.3906 831.6875,532.2969 831.9844,532.2969 C832.2813,532.2969 832.5625,532.4375 832.7188,532.7031 C832.8125,532.8594 832.8281,532.9844 832.8281,533.4219 L832.8281,534.8438 C832.8281,535.2656 832.7969,535.4531 832.6875,535.6094 C832.5156,535.8281 832.25,535.9688 831.9844,535.9688 C831.7656,535.9688 831.5313,535.8594 831.3906,535.7188 C831.25,535.5938 831.2188,535.4688 831.1563,535.0625 C831.0625,534.6563 830.8906,534.4375 830.4063,534.1563 C829.9375,533.9063 829.3281,533.75 828.75,533.75 C827.0156,533.75 825.7656,535.0625 825.7656,536.8438 L825.7656,537.9375 C825.7656,539.6406 827.0625,540.7344 829.1094,540.7344 C829.875,540.7344 830.5625,540.6094 830.9844,540.3438 C831.1719,540.25 831.1719,540.25 831.625,539.7656 C831.8125,539.5781 832.0156,539.5 832.2344,539.5 C832.7031,539.5 833.0938,539.8906 833.0938,540.3438 C833.0938,540.7344 832.7656,541.1875 832.1875,541.5938 C831.4375,542.1406 830.2813,542.4375 829.0625,542.4375 C826.1719,542.4375 824.0625,540.5469 824.0625,537.9688 L824.0625,536.8438 C824.0625,534.125 826.0625,532.0469 828.6875,532.0469 C829.5625,532.0469 830.1563,532.1875 831.0938,532.625 Z "/><text fill="#000000" font-family="sans-serif" font-size="12" lengthAdjust="spacingAndGlyphs" textLength="95" x="842.75" y="541.1074">CarteDeTerrain</text><line style="stroke: #A80036; stroke-width: 1.5;" x1="814.75" x2="939.75" y1="552.9531" y2="552.9531"/><line style="stroke: #A80036; stroke-width: 1.5;" x1="814.75" x2="939.75" y1="560.9531" y2="560.9531"/><rect fill="#FEFECE" filter="url(#f1)" height="48" style="stroke: #A80036; stroke-width: 1.5;" width="69" x="998.75" y="520.9531"/><ellipse cx="1013.75" cy="536.9531" fill="#ADD1B2" rx="11" ry="11" style="stroke: #A80036; stroke-width: 1.0;"/><path d="M1016.0938,532.625 L1016.2656,532.7031 C1016.4844,532.3906 1016.6875,532.2969 1016.9844,532.2969 C1017.2813,532.2969 1017.5625,532.4375 1017.7188,532.7031 C1017.8125,532.8594 1017.8281,532.9844 1017.8281,533.4219 L1017.8281,534.8438 C1017.8281,535.2656 1017.7969,535.4531 1017.6875,535.6094 C1017.5156,535.8281 1017.25,535.9688 1016.9844,535.9688 C1016.7656,535.9688 1016.5313,535.8594 1016.3906,535.7188 C1016.25,535.5938 1016.2188,535.4688 1016.1563,535.0625 C1016.0625,534.6563 1015.8906,534.4375 1015.4063,534.1563 C1014.9375,533.9063 1014.3281,533.75 1013.75,533.75 C1012.0156,533.75 1010.7656,535.0625 1010.7656,536.8438 L1010.7656,537.9375 C1010.7656,539.6406 1012.0625,540.7344 1014.1094,540.7344 C1014.875,540.7344 1015.5625,540.6094 1015.9844,540.3438 C1016.1719,540.25 1016.1719,540.25 1016.625,539.7656 C1016.8125,539.5781 1017.0156,539.5 1017.2344,539.5 C1017.7031,539.5 1018.0938,539.8906 1018.0938,540.3438 C1018.0938,540.7344 1017.7656,541.1875 1017.1875,541.5938 C1016.4375,542.1406 1015.2813,542.4375 1014.0625,542.4375 C1011.1719,542.4375 1009.0625,540.5469 1009.0625,537.9688 L1009.0625,536.8438 C1009.0625,534.125 1011.0625,532.0469 1013.6875,532.0469 C1014.5625,532.0469 1015.1563,532.1875 1016.0938,532.625 Z "/><text fill="#000000" font-family="sans-serif" font-size="12" lengthAdjust="spacingAndGlyphs" textLength="37" x="1027.75" y="541.1074">Robot</text><line style="stroke: #A80036; stroke-width: 1.5;" x1="999.75" x2="1066.75" y1="552.9531" y2="552.9531"/><line style="stroke: #A80036; stroke-width: 1.5;" x1="999.75" x2="1066.75" y1="560.9531" y2="560.9531"/><rect fill="#FEFECE" filter="url(#f1)" height="48" style="stroke: #A80036; stroke-width: 1.5;" width="85" x="645.75" y="628.9531"/><ellipse cx="660.75" cy="644.9531" fill="#ADD1B2" rx="11" ry="11" style="stroke: #A80036; stroke-width: 1.0;"/><path d="M663.0938,640.625 L663.2656,640.7031 C663.4844,640.3906 663.6875,640.2969 663.9844,640.2969 C664.2813,640.2969 664.5625,640.4375 664.7188,640.7031 C664.8125,640.8594 664.8281,640.9844 664.8281,641.4219 L664.8281,642.8438 C664.8281,643.2656 664.7969,643.4531 664.6875,643.6094 C664.5156,643.8281 664.25,643.9688 663.9844,643.9688 C663.7656,643.9688 663.5313,643.8594 663.3906,643.7188 C663.25,643.5938 663.2188,643.4688 663.1563,643.0625 C663.0625,642.6563 662.8906,642.4375 662.4063,642.1563 C661.9375,641.9063 661.3281,641.75 660.75,641.75 C659.0156,641.75 657.7656,643.0625 657.7656,644.8438 L657.7656,645.9375 C657.7656,647.6406 659.0625,648.7344 661.1094,648.7344 C661.875,648.7344 662.5625,648.6094 662.9844,648.3438 C663.1719,648.25 663.1719,648.25 663.625,647.7656 C663.8125,647.5781 664.0156,647.5 664.2344,647.5 C664.7031,647.5 665.0938,647.8906 665.0938,648.3438 C665.0938,648.7344 664.7656,649.1875 664.1875,649.5938 C663.4375,650.1406 662.2813,650.4375 661.0625,650.4375 C658.1719,650.4375 656.0625,648.5469 656.0625,645.9688 L656.0625,644.8438 C656.0625,642.125 658.0625,640.0469 660.6875,640.0469 C661.5625,640.0469 662.1563,640.1875 663.0938,640.625 Z "/><text fill="#000000" font-family="sans-serif" font-size="12" lengthAdjust="spacingAndGlyphs" textLength="53" x="674.75" y="649.1074">Incendie</text><line style="stroke: #A80036; stroke-width: 1.5;" x1="646.75" x2="729.75" y1="660.9531" y2="660.9531"/><line style="stroke: #A80036; stroke-width: 1.5;" x1="646.75" x2="729.75" y1="668.9531" y2="668.9531"/><rect fill="#FEFECE" filter="url(#f1)" height="48" style="stroke: #A80036; stroke-width: 1.5;" width="141" x="1021.75" y="628.9531"/><ellipse cx="1036.75" cy="644.9531" fill="#ADD1B2" rx="11" ry="11" style="stroke: #A80036; stroke-width: 1.0;"/><path d="M1039.0938,640.625 L1039.2656,640.7031 C1039.4844,640.3906 1039.6875,640.2969 1039.9844,640.2969 C1040.2813,640.2969 1040.5625,640.4375 1040.7188,640.7031 C1040.8125,640.8594 1040.8281,640.9844 1040.8281,641.4219 L1040.8281,642.8438 C1040.8281,643.2656 1040.7969,643.4531 1040.6875,643.6094 C1040.5156,643.8281 1040.25,643.9688 1039.9844,643.9688 C1039.7656,643.9688 1039.5313,643.8594 1039.3906,643.7188 C1039.25,643.5938 1039.2188,643.4688 1039.1563,643.0625 C1039.0625,642.6563 1038.8906,642.4375 1038.4063,642.1563 C1037.9375,641.9063 1037.3281,641.75 1036.75,641.75 C1035.0156,641.75 1033.7656,643.0625 1033.7656,644.8438 L1033.7656,645.9375 C1033.7656,647.6406 1035.0625,648.7344 1037.1094,648.7344 C1037.875,648.7344 1038.5625,648.6094 1038.9844,648.3438 C1039.1719,648.25 1039.1719,648.25 1039.625,647.7656 C1039.8125,647.5781 1040.0156,647.5 1040.2344,647.5 C1040.7031,647.5 1041.0938,647.8906 1041.0938,648.3438 C1041.0938,648.7344 1040.7656,649.1875 1040.1875,649.5938 C1039.4375,650.1406 1038.2813,650.4375 1037.0625,650.4375 C1034.1719,650.4375 1032.0625,648.5469 1032.0625,645.9688 L1032.0625,644.8438 C1032.0625,642.125 1034.0625,640.0469 1036.6875,640.0469 C1037.5625,640.0469 1038.1563,640.1875 1039.0938,640.625 Z "/><text fill="#000000" font-family="sans-serif" font-size="12" lengthAdjust="spacingAndGlyphs" textLength="109" x="1050.75" y="649.1074">JeuDeParametres</text><line style="stroke: #A80036; stroke-width: 1.5;" x1="1022.75" x2="1161.75" y1="660.9531" y2="660.9531"/><line style="stroke: #A80036; stroke-width: 1.5;" x1="1022.75" x2="1161.75" y1="668.9531" y2="668.9531"/><rect fill="#FEFECE" filter="url(#f1)" height="48" style="stroke: #A80036; stroke-width: 1.5;" width="78" x="1138" y="412.9531"/><ellipse cx="1153" cy="428.9531" fill="#ADD1B2" rx="11" ry="11" style="stroke: #A80036; stroke-width: 1.0;"/><path d="M1155.3438,424.625 L1155.5156,424.7031 C1155.7344,424.3906 1155.9375,424.2969 1156.2344,424.2969 C1156.5313,424.2969 1156.8125,424.4375 1156.9688,424.7031 C1157.0625,424.8594 1157.0781,424.9844 1157.0781,425.4219 L1157.0781,426.8438 C1157.0781,427.2656 1157.0469,427.4531 1156.9375,427.6094 C1156.7656,427.8281 1156.5,427.9688 1156.2344,427.9688 C1156.0156,427.9688 1155.7813,427.8594 1155.6406,427.7188 C1155.5,427.5938 1155.4688,427.4688 1155.4063,427.0625 C1155.3125,426.6563 1155.1406,426.4375 1154.6563,426.1563 C1154.1875,425.9063 1153.5781,425.75 1153,425.75 C1151.2656,425.75 1150.0156,427.0625 1150.0156,428.8438 L1150.0156,429.9375 C1150.0156,431.6406 1151.3125,432.7344 1153.3594,432.7344 C1154.125,432.7344 1154.8125,432.6094 1155.2344,432.3438 C1155.4219,432.25 1155.4219,432.25 1155.875,431.7656 C1156.0625,431.5781 1156.2656,431.5 1156.4844,431.5 C1156.9531,431.5 1157.3438,431.8906 1157.3438,432.3438 C1157.3438,432.7344 1157.0156,433.1875 1156.4375,433.5938 C1155.6875,434.1406 1154.5313,434.4375 1153.3125,434.4375 C1150.4219,434.4375 1148.3125,432.5469 1148.3125,429.9688 L1148.3125,428.8438 C1148.3125,426.125 1150.3125,424.0469 1152.9375,424.0469 C1153.8125,424.0469 1154.4063,424.1875 1155.3438,424.625 Z "/><text fill="#000000" font-family="sans-serif" font-size="12" lengthAdjust="spacingAndGlyphs" textLength="46" x="1167" y="433.1074">Chemin</text><line style="stroke: #A80036; stroke-width: 1.5;" x1="1139" x2="1215" y1="444.9531" y2="444.9531"/><line style="stroke: #A80036; stroke-width: 1.5;" x1="1139" x2="1215" y1="452.9531" y2="452.9531"/><rect fill="#FEFECE" filter="url(#f1)" height="48" style="stroke: #A80036; stroke-width: 1.5;" width="82" x="1282" y="412.9531"/><ellipse cx="1297" cy="428.9531" fill="#ADD1B2" rx="11" ry="11" style="stroke: #A80036; stroke-width: 1.0;"/><path d="M1299.3438,424.625 L1299.5156,424.7031 C1299.7344,424.3906 1299.9375,424.2969 1300.2344,424.2969 C1300.5313,424.2969 1300.8125,424.4375 1300.9688,424.7031 C1301.0625,424.8594 1301.0781,424.9844 1301.0781,425.4219 L1301.0781,426.8438 C1301.0781,427.2656 1301.0469,427.4531 1300.9375,427.6094 C1300.7656,427.8281 1300.5,427.9688 1300.2344,427.9688 C1300.0156,427.9688 1299.7813,427.8594 1299.6406,427.7188 C1299.5,427.5938 1299.4688,427.4688 1299.4063,427.0625 C1299.3125,426.6563 1299.1406,426.4375 1298.6563,426.1563 C1298.1875,425.9063 1297.5781,425.75 1297,425.75 C1295.2656,425.75 1294.0156,427.0625 1294.0156,428.8438 L1294.0156,429.9375 C1294.0156,431.6406 1295.3125,432.7344 1297.3594,432.7344 C1298.125,432.7344 1298.8125,432.6094 1299.2344,432.3438 C1299.4219,432.25 1299.4219,432.25 1299.875,431.7656 C1300.0625,431.5781 1300.2656,431.5 1300.4844,431.5 C1300.9531,431.5 1301.3438,431.8906 1301.3438,432.3438 C1301.3438,432.7344 1301.0156,433.1875 1300.4375,433.5938 C1299.6875,434.1406 1298.5313,434.4375 1297.3125,434.4375 C1294.4219,434.4375 1292.3125,432.5469 1292.3125,429.9688 L1292.3125,428.8438 C1292.3125,426.125 1294.3125,424.0469 1296.9375,424.0469 C1297.8125,424.0469 1298.4063,424.1875 1299.3438,424.625 Z "/><text fill="#000000" font-family="sans-serif" font-size="12" lengthAdjust="spacingAndGlyphs" textLength="50" x="1311" y="433.1074">Position</text><line style="stroke: #A80036; stroke-width: 1.5;" x1="1283" x2="1363" y1="444.9531" y2="444.9531"/><line style="stroke: #A80036; stroke-width: 1.5;" x1="1283" x2="1363" y1="452.9531" y2="452.9531"/><rect fill="#FEFECE" filter="url(#f1)" height="48" style="stroke: #A80036; stroke-width: 1.5;" width="100" x="1127" y="520.9531"/><ellipse cx="1142" cy="536.9531" fill="#ADD1B2" rx="11" ry="11" style="stroke: #A80036; stroke-width: 1.0;"/><path d="M1144.3438,532.625 L1144.5156,532.7031 C1144.7344,532.3906 1144.9375,532.2969 1145.2344,532.2969 C1145.5313,532.2969 1145.8125,532.4375 1145.9688,532.7031 C1146.0625,532.8594 1146.0781,532.9844 1146.0781,533.4219 L1146.0781,534.8438 C1146.0781,535.2656 1146.0469,535.4531 1145.9375,535.6094 C1145.7656,535.8281 1145.5,535.9688 1145.2344,535.9688 C1145.0156,535.9688 1144.7813,535.8594 1144.6406,535.7188 C1144.5,535.5938 1144.4688,535.4688 1144.4063,535.0625 C1144.3125,534.6563 1144.1406,534.4375 1143.6563,534.1563 C1143.1875,533.9063 1142.5781,533.75 1142,533.75 C1140.2656,533.75 1139.0156,535.0625 1139.0156,536.8438 L1139.0156,537.9375 C1139.0156,539.6406 1140.3125,540.7344 1142.3594,540.7344 C1143.125,540.7344 1143.8125,540.6094 1144.2344,540.3438 C1144.4219,540.25 1144.4219,540.25 1144.875,539.7656 C1145.0625,539.5781 1145.2656,539.5 1145.4844,539.5 C1145.9531,539.5 1146.3438,539.8906 1146.3438,540.3438 C1146.3438,540.7344 1146.0156,541.1875 1145.4375,541.5938 C1144.6875,542.1406 1143.5313,542.4375 1142.3125,542.4375 C1139.4219,542.4375 1137.3125,540.5469 1137.3125,537.9688 L1137.3125,536.8438 C1137.3125,534.125 1139.3125,532.0469 1141.9375,532.0469 C1142.8125,532.0469 1143.4063,532.1875 1144.3438,532.625 Z "/><text fill="#000000" font-family="sans-serif" font-size="12" lengthAdjust="spacingAndGlyphs" textLength="68" x="1156" y="541.1074">PathFinder</text><line style="stroke: #A80036; stroke-width: 1.5;" x1="1128" x2="1226" y1="552.9531" y2="552.9531"/><line style="stroke: #A80036; stroke-width: 1.5;" x1="1128" x2="1226" y1="560.9531" y2="560.9531"/><rect fill="#FEFECE" filter="url(#f1)" height="48" style="stroke: #A80036; stroke-width: 1.5;" width="133" x="1262.75" y="520.9531"/><ellipse cx="1277.75" cy="536.9531" fill="#ADD1B2" rx="11" ry="11" style="stroke: #A80036; stroke-width: 1.0;"/><path d="M1280.0938,532.625 L1280.2656,532.7031 C1280.4844,532.3906 1280.6875,532.2969 1280.9844,532.2969 C1281.2813,532.2969 1281.5625,532.4375 1281.7188,532.7031 C1281.8125,532.8594 1281.8281,532.9844 1281.8281,533.4219 L1281.8281,534.8438 C1281.8281,535.2656 1281.7969,535.4531 1281.6875,535.6094 C1281.5156,535.8281 1281.25,535.9688 1280.9844,535.9688 C1280.7656,535.9688 1280.5313,535.8594 1280.3906,535.7188 C1280.25,535.5938 1280.2188,535.4688 1280.1563,535.0625 C1280.0625,534.6563 1279.8906,534.4375 1279.4063,534.1563 C1278.9375,533.9063 1278.3281,533.75 1277.75,533.75 C1276.0156,533.75 1274.7656,535.0625 1274.7656,536.8438 L1274.7656,537.9375 C1274.7656,539.6406 1276.0625,540.7344 1278.1094,540.7344 C1278.875,540.7344 1279.5625,540.6094 1279.9844,540.3438 C1280.1719,540.25 1280.1719,540.25 1280.625,539.7656 C1280.8125,539.5781 1281.0156,539.5 1281.2344,539.5 C1281.7031,539.5 1282.0938,539.8906 1282.0938,540.3438 C1282.0938,540.7344 1281.7656,541.1875 1281.1875,541.5938 C1280.4375,542.1406 1279.2813,542.4375 1278.0625,542.4375 C1275.1719,542.4375 1273.0625,540.5469 1273.0625,537.9688 L1273.0625,536.8438 C1273.0625,534.125 1275.0625,532.0469 1277.6875,532.0469 C1278.5625,532.0469 1279.1563,532.1875 1280.0938,532.625 Z "/><text fill="#000000" font-family="sans-serif" font-size="12" lengthAdjust="spacingAndGlyphs" textLength="101" x="1291.75" y="541.1074">PathFinderAstar</text><line style="stroke: #A80036; stroke-width: 1.5;" x1="1263.75" x2="1394.75" y1="552.9531" y2="552.9531"/><line style="stroke: #A80036; stroke-width: 1.5;" x1="1263.75" x2="1394.75" y1="560.9531" y2="560.9531"/><rect fill="#FEFECE" filter="url(#f1)" height="48" style="stroke: #A80036; stroke-width: 1.5;" width="107" x="787.75" y="212.9531"/><ellipse cx="802.75" cy="228.9531" fill="#B4A7E5" rx="11" ry="11" style="stroke: #A80036; stroke-width: 1.0;"/><path d="M803.7031,225.7344 L803.7031,232.25 L805.4219,232.25 C805.875,232.25 806.0156,232.2813 806.1875,232.4063 C806.4219,232.5781 806.5313,232.8281 806.5313,233.1094 C806.5313,233.6719 806.1719,233.9531 805.4219,233.9531 L800.2813,233.9531 C799.875,233.9531 799.6719,233.9063 799.5156,233.7813 C799.2969,233.625 799.1563,233.3594 799.1563,233.1094 C799.1563,232.8125 799.3125,232.5313 799.5625,232.375 C799.7188,232.2656 799.8438,232.25 800.2813,232.25 L802,232.25 L802,225.7344 L800.2813,225.7344 C799.8594,225.7344 799.6719,225.7031 799.5156,225.5938 C799.2969,225.4219 799.1563,225.1719 799.1563,224.8906 C799.1563,224.6094 799.3125,224.3125 799.5625,224.1563 C799.7188,224.0625 799.8438,224.0469 800.2813,224.0469 L805.4219,224.0469 C805.875,224.0469 806.0156,224.0781 806.1875,224.1875 C806.4219,224.3594 806.5313,224.625 806.5313,224.8906 C806.5313,225.1875 806.3906,225.4688 806.125,225.625 C806,225.7031 805.8125,225.7344 805.4219,225.7344 Z "/><text fill="#000000" font-family="sans-serif" font-size="12" font-style="italic" lengthAdjust="spacingAndGlyphs" textLength="75" x="816.75" y="233.1074">Observateur</text><line style="stroke: #A80036; stroke-width: 1.5;" x1="788.75" x2="893.75" y1="244.9531" y2="244.9531"/><line style="stroke: #A80036; stroke-width: 1.5;" x1="788.75" x2="893.75" y1="252.9531" y2="252.9531"/><rect fill="#FEFECE" filter="url(#f1)" height="48" style="stroke: #A80036; stroke-width: 1.5;" width="82" x="453" y="96.9531"/><ellipse cx="468" cy="112.9531" fill="#ADD1B2" rx="11" ry="11" style="stroke: #A80036; stroke-width: 1.0;"/><path d="M470.3438,108.625 L470.5156,108.7031 C470.7344,108.3906 470.9375,108.2969 471.2344,108.2969 C471.5313,108.2969 471.8125,108.4375 471.9688,108.7031 C472.0625,108.8594 472.0781,108.9844 472.0781,109.4219 L472.0781,110.8438 C472.0781,111.2656 472.0469,111.4531 471.9375,111.6094 C471.7656,111.8281 471.5,111.9688 471.2344,111.9688 C471.0156,111.9688 470.7813,111.8594 470.6406,111.7188 C470.5,111.5938 470.4688,111.4688 470.4063,111.0625 C470.3125,110.6563 470.1406,110.4375 469.6563,110.1563 C469.1875,109.9063 468.5781,109.75 468,109.75 C466.2656,109.75 465.0156,111.0625 465.0156,112.8438 L465.0156,113.9375 C465.0156,115.6406 466.3125,116.7344 468.3594,116.7344 C469.125,116.7344 469.8125,116.6094 470.2344,116.3438 C470.4219,116.25 470.4219,116.25 470.875,115.7656 C471.0625,115.5781 471.2656,115.5 471.4844,115.5 C471.9531,115.5 472.3438,115.8906 472.3438,116.3438 C472.3438,116.7344 472.0156,117.1875 471.4375,117.5938 C470.6875,118.1406 469.5313,118.4375 468.3125,118.4375 C465.4219,118.4375 463.3125,116.5469 463.3125,113.9688 L463.3125,112.8438 C463.3125,110.125 465.3125,108.0469 467.9375,108.0469 C468.8125,108.0469 469.4063,108.1875 470.3438,108.625 Z "/><text fill="#000000" font-family="sans-serif" font-size="12" lengthAdjust="spacingAndGlyphs" textLength="50" x="482" y="117.1074">Lanceur</text><line style="stroke: #A80036; stroke-width: 1.5;" x1="454" x2="534" y1="128.9531" y2="128.9531"/><line style="stroke: #A80036; stroke-width: 1.5;" x1="454" x2="534" y1="136.9531" y2="136.9531"/><rect fill="#FEFECE" filter="url(#f1)" height="48" style="stroke: #A80036; stroke-width: 1.5;" width="129" x="570.75" y="96.9531"/><ellipse cx="585.75" cy="112.9531" fill="#ADD1B2" rx="11" ry="11" style="stroke: #A80036; stroke-width: 1.0;"/><path d="M588.0938,108.625 L588.2656,108.7031 C588.4844,108.3906 588.6875,108.2969 588.9844,108.2969 C589.2813,108.2969 589.5625,108.4375 589.7188,108.7031 C589.8125,108.8594 589.8281,108.9844 589.8281,109.4219 L589.8281,110.8438 C589.8281,111.2656 589.7969,111.4531 589.6875,111.6094 C589.5156,111.8281 589.25,111.9688 588.9844,111.9688 C588.7656,111.9688 588.5313,111.8594 588.3906,111.7188 C588.25,111.5938 588.2188,111.4688 588.1563,111.0625 C588.0625,110.6563 587.8906,110.4375 587.4063,110.1563 C586.9375,109.9063 586.3281,109.75 585.75,109.75 C584.0156,109.75 582.7656,111.0625 582.7656,112.8438 L582.7656,113.9375 C582.7656,115.6406 584.0625,116.7344 586.1094,116.7344 C586.875,116.7344 587.5625,116.6094 587.9844,116.3438 C588.1719,116.25 588.1719,116.25 588.625,115.7656 C588.8125,115.5781 589.0156,115.5 589.2344,115.5 C589.7031,115.5 590.0938,115.8906 590.0938,116.3438 C590.0938,116.7344 589.7656,117.1875 589.1875,117.5938 C588.4375,118.1406 587.2813,118.4375 586.0625,118.4375 C583.1719,118.4375 581.0625,116.5469 581.0625,113.9688 L581.0625,112.8438 C581.0625,110.125 583.0625,108.0469 585.6875,108.0469 C586.5625,108.0469 587.1563,108.1875 588.0938,108.625 Z "/><text fill="#000000" font-family="sans-serif" font-size="12" lengthAdjust="spacingAndGlyphs" textLength="97" x="599.75" y="117.1074">LanceurWindow</text><line style="stroke: #A80036; stroke-width: 1.5;" x1="571.75" x2="698.75" y1="128.9531" y2="128.9531"/><line style="stroke: #A80036; stroke-width: 1.5;" x1="571.75" x2="698.75" y1="136.9531" y2="136.9531"/><path d="M634.191,145.0231 C633.556,163.1011 632.671,188.3401 631.993,207.6421 " fill="none" style="stroke: #A80036; stroke-width: 1.0;"/><polygon fill="#A80036" points="631.808,212.9181,636.1218,204.0642,631.9837,207.9212,628.1267,203.7831,631.808,212.9181" style="stroke: #A80036; stroke-width: 1.0;"/><path d="M494.809,145.0231 C495.444,163.1011 496.329,188.3401 497.007,207.6421 " fill="none" style="stroke: #A80036; stroke-width: 1.0;"/><polygon fill="#A80036" points="497.192,212.9181,500.8733,203.7831,497.0163,207.9212,492.8782,204.0642,497.192,212.9181" style="stroke: #A80036; stroke-width: 1.0;"/><path d="M364.702,137.6311 C374.628,157.8381 391.911,193.0221 402.887,215.3651 " fill="none" style="stroke: #A80036; stroke-width: 1.0;"/><polygon fill="#A80036" points="405.116,219.9041,404.7379,210.0625,402.9114,215.4164,397.5576,213.5899,405.116,219.9041" style="stroke: #A80036; stroke-width: 1.0;"/><path d="M425.847,289.3141 C427.649,293.3781 429.691,297.3141 432,300.9531 C469.793,360.5111 540.917,409.8881 569.571,428.2611 " fill="none" style="stroke: #A80036; stroke-width: 1.0;"/><polygon fill="#A80036" points="574.102,431.1351,568.6425,422.9379,569.8791,428.458,564.3591,429.6945,574.102,431.1351" style="stroke: #A80036; stroke-width: 1.0;"/><polygon fill="#A80036" points="423.839,284.4931,423.605,294.3392,425.7606,289.1091,430.9906,291.2647,423.839,284.4931" style="stroke: #A80036; stroke-width: 1.0;"/><path d="M741.481,255.9971 C731.74,270.8611 715.789,291.0481 696,300.9531 C677.055,310.4361 616.456,294.4631 601,308.9531 C597.234,312.4831 593.995,316.4141 591.216,320.6431 " fill="none" style="stroke: #A80036; stroke-width: 1.0;"/><polygon fill="#A80036" points="588.589,324.9681,596.6795,319.3518,591.1843,320.6945,589.8417,315.1993,588.589,324.9681" style="stroke: #A80036; stroke-width: 1.0;"/><polygon fill="#A80036" points="744.303,251.5711,736.0924,257.0105,741.6155,255.7874,742.8385,261.3105,744.303,251.5711" style="stroke: #A80036; stroke-width: 1.0;"/></g></svg>